<?xml version="1.0" encoding="utf-8"?>
<!-- Generator: Adobe Illustrator 19.0.0, SVG Export Plug-In . SVG Version: 6.00 Build 0)  -->
<svg version="1.1" id="Layer_1" xmlns="http://www.w3.org/2000/svg" xmlns:xlink="http://www.w3.org/1999/xlink" x="0px" y="0px"
	 viewBox="0 0 623.5 113.7" style="enable-background:new 0 0 623.5 113.7;" xml:space="preserve">
<style type="text/css">
	.st0{fill:#606060;}
</style>
<g id="XMLID_517_">
	<path id="XMLID_518_" class="st0" d="M0,25.8h15.6V37c2.5-3.6,5.5-6.6,9.2-9s8.2-3.6,13.6-3.6c4,0,7.9,0.8,11.6,2.3
		c3.7,1.5,7.1,3.8,10,6.8c2.9,3,5.3,6.6,7.1,11c1.8,4.3,2.7,9.3,2.7,14.9v0.3c0,5.6-0.9,10.6-2.6,14.9c-1.7,4.3-4.1,8-7,11
		c-2.9,3-6.3,5.2-10.1,6.8c-3.8,1.5-7.7,2.3-11.7,2.3c-5.5,0-10.1-1.2-13.8-3.6c-3.7-2.4-6.7-5.2-9-8.3v30.9H0V25.8z M34.9,81.2
		c2.6,0,5.1-0.5,7.5-1.5c2.3-1,4.4-2.4,6.1-4.3c1.7-1.8,3.1-4.1,4.2-6.8c1-2.7,1.5-5.7,1.5-9v-0.3c0-3.2-0.5-6.2-1.5-8.9
		c-1-2.7-2.4-5-4.2-6.8c-1.7-1.9-3.8-3.3-6.1-4.3c-2.3-1-4.8-1.5-7.5-1.5c-2.6,0-5.2,0.5-7.5,1.5c-2.4,1-4.5,2.5-6.3,4.4
		c-1.8,1.9-3.2,4.2-4.3,6.8c-1.1,2.6-1.6,5.6-1.6,8.8v0.3c0,3.2,0.5,6.2,1.6,8.9c1.1,2.7,2.5,5,4.3,6.8c1.8,1.9,3.9,3.3,6.3,4.3
		C29.7,80.7,32.2,81.2,34.9,81.2z"/>
	<path id="XMLID_521_" class="st0" d="M78.6,0h15.6v36.4c1.1-1.6,2.3-3.2,3.6-4.6c1.3-1.4,2.8-2.7,4.6-3.8c1.7-1.1,3.7-2,5.7-2.6
		c2.1-0.6,4.4-1,7.1-1c7.6,0,13.5,2.3,17.7,7c4.2,4.7,6.2,11,6.2,18.9v42.9h-15.6V55c0-5.3-1.2-9.3-3.7-12.2
		c-2.5-2.8-6-4.3-10.6-4.3c-4.5,0-8.1,1.5-10.9,4.4c-2.8,2.9-4.2,7-4.2,12.3v38H78.6V0z"/>
	<path id="XMLID_523_" class="st0" d="M151,0.8h16.7v14.7H151V0.8z M151.6,25.8h15.6v67.4h-15.6V25.8z"/>
	<path id="XMLID_526_" class="st0" d="M181.1,0h15.6v93.2h-15.6V0z"/>
	<path id="XMLID_528_" class="st0" d="M209.7,25.8h15.6V37c2.5-3.6,5.5-6.6,9.2-9s8.2-3.6,13.6-3.6c4,0,7.9,0.8,11.6,2.3
		c3.7,1.5,7.1,3.8,10,6.8c2.9,3,5.3,6.6,7.1,11s2.7,9.3,2.7,14.9v0.3c0,5.6-0.9,10.6-2.6,14.9c-1.7,4.3-4.1,8-7,11
		c-2.9,3-6.3,5.2-10.1,6.8c-3.8,1.5-7.7,2.3-11.7,2.3c-5.5,0-10.1-1.2-13.8-3.6c-3.7-2.4-6.7-5.2-9-8.3v30.9h-15.6V25.8z
		 M244.6,81.2c2.6,0,5.1-0.5,7.5-1.5c2.3-1,4.4-2.4,6.1-4.3c1.7-1.8,3.1-4.1,4.2-6.8c1-2.7,1.5-5.7,1.5-9v-0.3
		c0-3.2-0.5-6.2-1.5-8.9c-1-2.7-2.4-5-4.2-6.8c-1.7-1.9-3.8-3.3-6.1-4.3c-2.3-1-4.8-1.5-7.5-1.5c-2.6,0-5.2,0.5-7.5,1.5
		c-2.4,1-4.5,2.5-6.3,4.4c-1.8,1.9-3.2,4.2-4.3,6.8c-1.1,2.6-1.6,5.6-1.6,8.8v0.3c0,3.2,0.5,6.2,1.6,8.9c1.1,2.7,2.5,5,4.3,6.8
		c1.8,1.9,3.9,3.3,6.3,4.3C239.5,80.7,242,81.2,244.6,81.2z"/>
	<path id="XMLID_531_" class="st0" d="M329.6,93.2v-8.3c-2.3,2.7-5.2,5-8.8,6.9c-3.6,1.9-7.9,2.8-13,2.8c-3.2,0-6.3-0.4-9.2-1.3
		c-2.9-0.9-5.4-2.2-7.6-4c-2.2-1.7-3.9-3.9-5.2-6.5c-1.3-2.6-2-5.6-2-9v-0.3c0-3.7,0.7-7,2-9.8c1.4-2.8,3.3-5.1,5.7-6.9
		c2.4-1.8,5.3-3.2,8.7-4.1c3.4-0.9,7-1.3,10.9-1.3c4.1,0,7.6,0.3,10.4,0.8c2.9,0.5,5.6,1.2,8.2,2V53c0-4.7-1.4-8.3-4.3-10.7
		c-2.9-2.5-7-3.7-12.3-3.7c-3.8,0-7.2,0.4-10.2,1.1c-3,0.8-6,1.8-9.1,3.1l-4.2-12.4c3.7-1.7,7.6-3.1,11.5-4.1
		c3.9-1,8.6-1.5,14.2-1.5c10,0,17.5,2.5,22.4,7.5c4.9,5,7.3,12,7.3,21v40H329.6z M329.9,65c-2-0.8-4.3-1.4-7-1.9
		c-2.7-0.5-5.5-0.8-8.5-0.8c-4.9,0-8.6,0.9-11.4,2.8c-2.7,1.9-4.1,4.4-4.1,7.7v0.3c0,3.2,1.3,5.7,3.8,7.4c2.5,1.7,5.6,2.6,9.3,2.6
		c2.6,0,4.9-0.3,7.1-1c2.2-0.7,4.1-1.6,5.7-2.9c1.6-1.2,2.9-2.7,3.8-4.5c0.9-1.7,1.3-3.7,1.3-5.8V65z"/>
	<path id="XMLID_534_" class="st0" d="M356.2,25.8h15.6V37c2.5-3.6,5.5-6.6,9.2-9c3.7-2.4,8.2-3.6,13.6-3.6c4,0,7.9,0.8,11.6,2.3
		c3.7,1.5,7.1,3.8,10,6.8c2.9,3,5.3,6.6,7.1,11c1.8,4.3,2.7,9.3,2.7,14.9v0.3c0,5.6-0.9,10.6-2.6,14.9c-1.7,4.3-4.1,8-7,11
		c-2.9,3-6.3,5.2-10.1,6.8c-3.8,1.5-7.7,2.3-11.7,2.3c-5.5,0-10.1-1.2-13.8-3.6c-3.7-2.4-6.7-5.2-9-8.3v30.9h-15.6V25.8z
		 M391.1,81.2c2.6,0,5.1-0.5,7.5-1.5c2.3-1,4.4-2.4,6.1-4.3c1.7-1.8,3.1-4.1,4.2-6.8c1-2.7,1.5-5.7,1.5-9v-0.3
		c0-3.2-0.5-6.2-1.5-8.9c-1-2.7-2.4-5-4.2-6.8c-1.7-1.9-3.8-3.3-6.1-4.3c-2.3-1-4.8-1.5-7.5-1.5c-2.6,0-5.2,0.5-7.5,1.5
		c-2.4,1-4.5,2.5-6.3,4.4c-1.8,1.9-3.2,4.2-4.3,6.8c-1.1,2.6-1.6,5.6-1.6,8.8v0.3c0,3.2,0.5,6.2,1.6,8.9c1.1,2.7,2.5,5,4.3,6.8
		c1.8,1.9,3.9,3.3,6.3,4.3C386,80.7,388.5,81.2,391.1,81.2z"/>
	<path id="XMLID_537_" class="st0" d="M465.7,94.8c-4.9,0-9.4-0.9-13.6-2.6c-4.2-1.7-7.9-4.1-11-7.2c-3.1-3.1-5.6-6.7-7.3-11
		c-1.8-4.3-2.7-9-2.7-14.2v-0.3c0-4.9,0.8-9.4,2.4-13.7c1.6-4.3,3.9-8,6.8-11.2c2.9-3.2,6.4-5.7,10.4-7.5c4-1.8,8.4-2.7,13.3-2.7
		c5.4,0,10.1,1,14.1,2.9c4,2,7.4,4.6,10.1,7.9c2.7,3.3,4.7,7.2,6.1,11.6c1.4,4.4,2,9,2,13.9c0,0.7,0,1.4-0.1,2.1
		c0,0.7-0.1,1.5-0.2,2.2h-49.6c0.8,5.5,3,9.8,6.6,12.7c3.5,2.9,7.8,4.4,12.8,4.4c3.8,0,7.2-0.7,10-2c2.8-1.4,5.6-3.4,8.3-6l9.1,8
		c-3.2,3.8-7.1,6.9-11.6,9.2C477.3,93.6,471.9,94.8,465.7,94.8z M481,54.8c-0.3-2.5-0.8-4.8-1.7-7c-0.9-2.2-2-4-3.4-5.6
		c-1.4-1.6-3.2-2.8-5.2-3.8c-2-0.9-4.3-1.4-6.8-1.4c-4.8,0-8.7,1.6-11.8,4.9c-3.1,3.3-5,7.6-5.7,12.8H481z"/>
	<path id="XMLID_540_" class="st0" d="M504.9,25.8h15.6V41c2.1-5.1,5.2-9.2,9.1-12.3c3.9-3.1,8.9-4.5,14.8-4.2v16.4h-0.9
		c-3.4,0-6.5,0.6-9.3,1.7c-2.8,1.1-5.2,2.8-7.3,5c-2,2.2-3.6,5-4.7,8.4c-1.1,3.4-1.7,7.3-1.7,11.7v25.7h-15.6V25.8z"/>
	<path id="XMLID_542_" class="st0" d="M573.8,94.5c-4.9,0-9.8-0.9-14.8-2.6c-5-1.7-9.6-4.3-13.9-7.6l6.9-10.5
		c3.7,2.7,7.4,4.8,11.2,6.2c3.8,1.4,7.4,2.1,10.9,2.1c3.3,0,5.9-0.7,7.7-2c1.8-1.3,2.7-3.1,2.7-5.3v-0.3c0-1.3-0.4-2.4-1.2-3.3
		c-0.8-0.9-1.9-1.7-3.3-2.4c-1.4-0.7-3-1.3-4.9-1.9c-1.8-0.6-3.7-1.2-5.7-1.8c-2.5-0.7-5-1.5-7.5-2.4c-2.5-0.9-4.8-2.1-6.8-3.6
		c-2-1.5-3.6-3.3-4.9-5.5c-1.3-2.2-1.9-4.9-1.9-8.2v-0.3c0-3.1,0.6-6,1.9-8.5c1.2-2.5,2.9-4.7,5.1-6.5c2.2-1.8,4.7-3.1,7.7-4.1
		c2.9-0.9,6.1-1.4,9.4-1.4c4.3,0,8.6,0.7,12.9,2.1c4.3,1.4,8.3,3.3,11.9,5.7l-6.1,11c-3.2-2-6.5-3.5-9.8-4.7
		c-3.3-1.1-6.4-1.7-9.2-1.7c-3,0-5.3,0.6-7,1.9c-1.7,1.3-2.5,2.9-2.5,4.8v0.3c0,1.2,0.4,2.2,1.3,3.1c0.8,0.9,2,1.7,3.4,2.4
		c1.4,0.7,3,1.4,4.9,2c1.8,0.6,3.7,1.3,5.7,1.8c2.5,0.8,4.9,1.7,7.4,2.7c2.5,1,4.7,2.3,6.7,3.8c2,1.5,3.6,3.3,4.9,5.4
		c1.3,2.1,1.9,4.7,1.9,7.8v0.3c0,3.6-0.6,6.7-1.9,9.3c-1.3,2.6-3,4.8-5.3,6.6c-2.3,1.7-4.9,3.1-8,4
		C580.5,94.1,577.3,94.5,573.8,94.5z"/>
	<path id="XMLID_544_" class="st0" d="M606.5,75.7h17v17.5h-17V75.7z"/>
	<path id="XMLID_454_" class="st0" d="M0,15.6L0,0l67.8,0v15.6H0z"/>
	<path id="XMLID_548_" class="st0" d="M211.7,15.6V0l67.8,0v15.6H211.7z"/>
</g>
</svg>
