<?xml version="1.0" encoding="utf-8"?>
<!-- Generator: Adobe Illustrator 19.0.0, SVG Export Plug-In . SVG Version: 6.00 Build 0)  -->
<svg version="1.1" id="Layer_1" xmlns="http://www.w3.org/2000/svg" xmlns:xlink="http://www.w3.org/1999/xlink" x="0px" y="0px"
	 viewBox="0 0 517.4 95.9" style="enable-background:new 0 0 517.4 95.9;" xml:space="preserve">
<style type="text/css">
	.st0{fill:#5C5C5C;}
	.st1{fill:#36D7B7;}
	.st2{fill:#6BC5E6;}
</style>
<g id="XMLID_31_">
	<path id="XMLID_56_" class="st0" d="M54.2,50c0,19.4-9.1,29.6-23.1,29.6c-4.1,0-7.8-1.1-10.3-3.2v10c0,6.2,3.4,7.8,9,7.8v2.1
		c-3.4-0.1-10-0.4-16.8-0.4c-4.9,0-10.1,0.3-12.6,0.4v-2.1c4.4,0,6-1.5,6-6.8v-50c0-6-1.6-8.8-6.4-8.8v-2.1c2.1,0.2,4.2,0.3,6.2,0.3
		c5.6,0,10.4-0.4,14.6-1.4v9.4c2.8-6.3,8.4-9.7,15.5-9.7C46.5,25.1,54.2,33.4,54.2,50z M39.1,52c0-17-3.4-22.6-8.6-22.6
		c-4.4,0-8.4,3.2-9.7,8.8v36c1.5,1.7,3.7,2.7,6.3,2.7C36,76.9,39.1,67.4,39.1,52z"/>
	<path id="XMLID_54_" class="st0" d="M78.2,34.4c3.3-6.8,9.3-9.3,16.4-9.3c5.7,0,9,1.6,11,3.9c2.2,2.5,3.1,6.2,3.1,13v27
		c0,5.6,1.8,7.2,6.4,7.2v2.1c-2.5-0.1-8.3-0.4-13.2-0.4c-5.1,0-10.5,0.3-13,0.4v-2.1c4,0,5.4-1.6,5.4-7.2V37.8c0-5-1.2-8.3-6.2-8.3
		c-5.5,0-10,4.8-10,11.6v27.9c0,5.6,1.5,7.2,5.4,7.2v2.1c-2.3-0.1-7.5-0.4-12.4-0.4c-5.1,0-11.1,0.3-13.8,0.4v-2.1
		c4.6,0,6.4-1.6,6.4-7.2V12c0-6-1.6-8.8-6.4-8.8V1.1c2.1,0.2,4.2,0.3,6.2,0.3C69.2,1.4,74,1,78.2,0V34.4z"/>
	<path id="XMLID_53_" class="st0" d="M137.1,68.9V25.4c-4.2,1-9,1.4-14.6,1.4c-2,0-4.1-0.1-6.2-0.3v2.1c4.8,0,6.4,2.8,6.4,8.8v31.5
		c0,5.6-1.8,7.2-6.4,7.2v2.1c2.6-0.1,8.6-0.4,13.8-0.4c5.2,0,10.8,0.3,13.4,0.4v-2.1C138.8,76.1,137.1,74.5,137.1,68.9z"/>
	<path id="XMLID_52_" class="st0" d="M129.2,16.2c5.5,0,9.1-2.9,9.1-7.8c0-4.8-3.6-7.7-9.1-7.7c-5.6,0-9.1,2.9-9.1,7.7
		C120.1,13.2,123.6,16.2,129.2,16.2z"/>
	<path id="XMLID_50_" class="st0" d="M165.7,68.9c0,5.6,1.8,7.2,6.4,7.2v2.1c-2.5-0.1-8.2-0.4-13.3-0.4c-5.2,0-11.2,0.3-13.9,0.4
		v-2.1c4.7,0,6.4-1.6,6.4-7.2V12c0-6-1.6-8.8-6.4-8.8V1c2.1,0.2,4.2,0.3,6.2,0.3c5.6,0,10.4-0.4,14.6-1.4V68.9z"/>
</g>
<path id="XMLID_48_" class="st1" d="M193.5,71.9c0,4.8-3.3,7.7-8.5,7.7s-8.5-2.9-8.5-7.7c0-4.8,3.3-7.8,8.5-7.8
	S193.5,67.1,193.5,71.9z"/>
<g id="XMLID_32_">
	<path id="XMLID_45_" class="st0" d="M252.2,50c0,19.4-9.1,29.6-23.1,29.6c-4.1,0-7.8-1.1-10.3-3.2v10c0,6.2,3.4,7.8,9,7.8v2.1
		c-3.4-0.1-10-0.4-16.8-0.4c-4.9,0-10.1,0.3-12.6,0.4v-2.1c4.4,0,6-1.5,6-6.8v-50c0-6-1.6-8.8-6.4-8.8v-2.1c2.1,0.2,4.2,0.3,6.2,0.3
		c5.6,0,10.4-0.4,14.6-1.4v9.4c2.8-6.3,8.4-9.7,15.5-9.7C244.4,25.1,252.2,33.4,252.2,50z M237.1,52c0-17-3.4-22.6-8.6-22.6
		c-4.4,0-8.4,3.2-9.7,8.8v36c1.5,1.7,3.7,2.7,6.3,2.7C234,76.9,237.1,67.4,237.1,52z"/>
	<path id="XMLID_42_" class="st0" d="M294.4,29.6c2.9,3,3.6,7,3.6,14v27.2c0,3.2,0.5,4.4,2.1,4.4c1.4,0,2.5-0.8,3.7-1.7l1,1.7
		c-3,2.4-6.3,3.7-11.4,3.7c-7.3,0-9.6-3.8-9.6-8.1c-3.4,5.6-9.1,8.1-14.7,8.1c-7.5,0-12.6-4.1-12.6-11.4c0-7.2,4.8-11.3,14.1-14.7
		c7.4-2.8,13.1-4.7,13.1-9V36c0-5.2-2.2-8.9-8.2-8.9c-2.4,0-5.3,0.7-7.1,2.4c3.6,1.2,5.9,3.8,5.9,7.9c0,4.2-3.2,7.2-8.2,7.2
		c-4.3,0-7.1-3.3-7.1-7.7c0-3.7,2.3-6.4,5.6-8.3c3.6-2,8.4-3.4,15.2-3.4C286.2,25.1,291.2,26.3,294.4,29.6z M283.5,47.9
		c-0.9,1.5-2.8,2.8-6.2,4.9c-3.5,2.6-6.8,5.9-6.8,11.9c0,5.5,2.7,7.8,6.3,7.8c2.4,0,4.6-1.1,6.7-4.1V47.9z"/>
	<path id="XMLID_39_" class="st0" d="M358.9,50c0,19.4-9.1,29.6-23.1,29.6c-4.1,0-7.8-1.1-10.3-3.2v10c0,6.2,3.4,7.8,9,7.8v2.1
		c-3.4-0.1-10-0.4-16.8-0.4c-4.9,0-10.1,0.3-12.6,0.4v-2.1c4.4,0,6-1.5,6-6.8v-50c0-6-1.6-8.8-6.4-8.8v-2.1c2.1,0.2,4.2,0.3,6.2,0.3
		c5.6,0,10.4-0.4,14.6-1.4v9.4c2.8-6.3,8.4-9.7,15.5-9.7C351.2,25.1,358.9,33.4,358.9,50z M343.8,52c0-17-3.4-22.6-8.6-22.6
		c-4.4,0-8.4,3.2-9.7,8.8v36c1.5,1.7,3.7,2.7,6.3,2.7C340.7,76.9,343.8,67.4,343.8,52z"/>
	<path id="XMLID_36_" class="st0" d="M405.2,63.4l1.8,0.7c-2.4,7.5-8.9,15.6-20,15.6c-13.5,0-23-8.5-23-26.8
		c0-18.6,10.3-27.8,24.5-27.8c11.7,0,18.8,6.5,18.8,22.2h-28c-0.1,1.5-0.2,3.1-0.2,4.7c0,13.9,6.7,19.3,13,19.3
		C396,71.4,401.1,70,405.2,63.4z M378.9,45.4h15.7c0.2-9.8-1.9-18.2-6.8-18.2C383.3,27.2,379.7,32.5,378.9,45.4z"/>
	<path id="XMLID_34_" class="st0" d="M453.5,34.3c0,4.9-3.1,8.4-7.8,8.4s-7.5-2.5-7.5-6.4c0-3.7,1.9-6.1,4.4-7.7
		c-0.4-0.1-0.8-0.2-1.3-0.2c-0.4,0-0.9,0.1-1.4,0.2c-5.3,0.9-9.1,7.5-9.1,12.9v26.5c0,6.4,3.1,8.2,9.4,8.2v2.1
		c-3.1-0.1-9.6-0.4-15.9-0.4c-5.5,0-11.6,0.3-14.3,0.4v-2.1c4.6,0,6.4-1.6,6.4-7.2V37.4c0-6-1.6-8.8-6.4-8.8v-2.1
		c2.1,0.2,4.2,0.3,6.2,0.3c5.6,0,10.4-0.4,14.6-1.4v9.3c2.4-5.4,7.2-9.6,13.5-9.6C450.8,25.1,453.5,29.8,453.5,34.3z"/>
	<path id="XMLID_8_" class="st0" d="M485.8,28.2c0.7,0.4,1.3,0.7,1.8,0.7c1.2,0,2-1.2,2.3-3.7h2.1c-0.3,3.8-0.4,8.7-0.4,17.6h-2.1
		c-1-7.4-4.3-15.5-12.8-15.5c-3.9,0-6.8,2.3-6.8,6.4c0,6,6.2,9.3,12.3,13.9c6.7,4.9,12,9.2,12,17.1c0,9.1-8.6,14.8-18.9,14.8
		c-4,0-7.1-0.9-9.4-2.1c-1.8-0.9-3.2-1.7-4.6-2.1c-0.1,0-0.3-0.1-0.4-0.1c-1.1,0-2,1.4-2.4,3.6h-2.1c0.3-4.3,0.4-9.9,0.4-20h2.1
		c1.2,10.8,5.1,18.4,13.5,18.4c3.5,0,7-2,7-7.1c0-5.9-4.3-9.1-10.1-13.6c-6.5-5.1-12.5-9.7-12.5-17.7c0-8.9,8.1-13.8,17.2-13.8
		C479.5,25.1,483.9,26.9,485.8,28.2z"/>
</g>
<path id="XMLID_1_" class="st2" d="M517.4,71.9c0,4.8-3.3,7.7-8.5,7.7s-8.5-2.9-8.5-7.7c0-4.8,3.3-7.8,8.5-7.8
	S517.4,67.1,517.4,71.9z"/>
</svg>
