<?xml version="1.0" encoding="utf-8"?>
<!-- Generator: Adobe Illustrator 19.0.0, SVG Export Plug-In . SVG Version: 6.00 Build 0)  -->
<svg version="1.1" id="Layer_1" xmlns="http://www.w3.org/2000/svg" xmlns:xlink="http://www.w3.org/1999/xlink" x="0px" y="0px"
	 viewBox="0 0 623.5 111.4" style="enable-background:new 0 0 623.5 111.4;" xml:space="preserve">
<style type="text/css">
	.st0{fill:#383838;}
</style>
<g id="XMLID_105_">
	<path id="XMLID_106_" class="st0" d="M0,24.3h19v9.6c2.3-3.2,5.2-5.8,8.4-7.8c3.3-2,7.4-3.1,12.5-3.1c3.9,0,7.7,0.8,11.4,2.3
		c3.7,1.5,6.9,3.7,9.8,6.7c2.8,3,5.1,6.6,6.8,10.9c1.7,4.3,2.6,9.2,2.6,14.8v0.2c0,5.6-0.9,10.5-2.6,14.8c-1.7,4.3-4,7.9-6.8,10.9
		c-2.8,3-6,5.2-9.7,6.7c-3.7,1.5-7.5,2.3-11.5,2.3c-5.1,0-9.3-1-12.6-3c-3.3-2-6.1-4.3-8.3-7v28.8H0V24.3z M35,76.5
		c2.3,0,4.4-0.4,6.3-1.3c2-0.9,3.7-2.1,5.2-3.8c1.5-1.6,2.7-3.6,3.6-5.8c0.9-2.3,1.3-4.8,1.3-7.6v-0.2c0-2.8-0.4-5.3-1.3-7.6
		c-0.9-2.3-2.1-4.3-3.6-5.9c-1.5-1.6-3.2-2.9-5.2-3.8c-2-0.9-4.1-1.3-6.3-1.3c-2.3,0-4.4,0.4-6.3,1.3c-2,0.9-3.7,2.1-5.1,3.8
		c-1.5,1.6-2.6,3.6-3.5,5.9c-0.9,2.3-1.3,4.8-1.3,7.6v0.2c0,2.8,0.4,5.3,1.3,7.6c0.9,2.3,2,4.3,3.5,5.9c1.5,1.6,3.2,2.9,5.1,3.8
		C30.7,76,32.8,76.5,35,76.5z"/>
	<path id="XMLID_109_" class="st0" d="M77.6,0h19v33.9c1.1-1.4,2.3-2.8,3.6-4.1c1.3-1.3,2.7-2.5,4.3-3.5c1.6-1,3.3-1.8,5.3-2.4
		c1.9-0.6,4.1-0.9,6.5-0.9c7.3,0,12.9,2.2,16.8,6.6c4,4.4,5.9,10.5,5.9,18.3v43.4h-19V54c0-4.5-1-7.9-3-10.2c-2-2.3-4.8-3.4-8.5-3.4
		c-3.7,0-6.6,1.1-8.7,3.4c-2.1,2.3-3.2,5.7-3.2,10.2v37.3h-19V0z"/>
	<path id="XMLID_111_" class="st0" d="M149,0h20v16.9h-20V0z M149.5,24.3h19v67.1h-19V24.3z"/>
	<path id="XMLID_114_" class="st0" d="M180.5,0h19v91.4h-19V0z"/>
	<path id="XMLID_116_" class="st0" d="M210.5,24.3h19v9.6c2.3-3.2,5.2-5.8,8.4-7.8c3.3-2,7.4-3.1,12.5-3.1c3.9,0,7.7,0.8,11.4,2.3
		c3.7,1.5,6.9,3.7,9.8,6.7c2.8,3,5.1,6.6,6.8,10.9c1.7,4.3,2.6,9.2,2.6,14.8v0.2c0,5.6-0.9,10.5-2.6,14.8c-1.7,4.3-4,7.9-6.8,10.9
		c-2.8,3-6,5.2-9.7,6.7c-3.7,1.5-7.5,2.3-11.5,2.3c-5.1,0-9.3-1-12.6-3c-3.3-2-6.1-4.3-8.3-7v28.8h-19V24.3z M245.5,76.5
		c2.3,0,4.4-0.4,6.3-1.3c2-0.9,3.7-2.1,5.2-3.8c1.5-1.6,2.7-3.6,3.6-5.8c0.9-2.3,1.3-4.8,1.3-7.6v-0.2c0-2.8-0.4-5.3-1.3-7.6
		c-0.9-2.3-2.1-4.3-3.6-5.9c-1.5-1.6-3.2-2.9-5.2-3.8c-2-0.9-4.1-1.3-6.3-1.3c-2.3,0-4.4,0.4-6.3,1.3c-2,0.9-3.7,2.1-5.1,3.8
		c-1.5,1.6-2.6,3.6-3.5,5.9c-0.9,2.3-1.3,4.8-1.3,7.6v0.2c0,2.8,0.4,5.3,1.3,7.6c0.9,2.3,2,4.3,3.5,5.9c1.5,1.6,3.2,2.9,5.1,3.8
		C241.2,76,243.3,76.5,245.5,76.5z"/>
	<path id="XMLID_119_" class="st0" d="M307.1,92.6c-3.2,0-6.2-0.4-8.9-1.3c-2.8-0.9-5.2-2.2-7.3-3.9c-2.1-1.8-3.7-3.9-4.9-6.4
		c-1.2-2.5-1.8-5.5-1.8-8.8v-0.3c0-3.7,0.7-6.8,2-9.5c1.3-2.7,3.2-4.9,5.6-6.6c2.4-1.8,5.2-3.1,8.5-3.9c3.3-0.9,6.9-1.3,11-1.3
		c3.4,0,6.4,0.3,8.9,0.8c2.5,0.5,5,1.2,7.4,2v-1.1c0-4-1.2-7-3.6-9.1c-2.4-2.1-6-3.1-10.8-3.1c-3.7,0-6.9,0.3-9.7,0.9
		c-2.8,0.6-5.7,1.5-8.8,2.7l-4.8-14.5c3.7-1.6,7.5-2.9,11.5-3.9c4-1,8.8-1.5,14.5-1.5c5.3,0,9.7,0.6,13.5,1.9
		c3.7,1.3,6.8,3.2,9.2,5.6c2.5,2.5,4.3,5.6,5.5,9.2c1.2,3.6,1.8,7.7,1.8,12.2v38.9h-18.4v-7.3c-2.3,2.6-5.1,4.7-8.4,6.2
		C315.7,91.8,311.8,92.6,307.1,92.6z M312.9,79.5c4.5,0,8.1-1.1,10.8-3.3c2.7-2.2,4.1-5,4.1-8.5v-3.4c-1.7-0.8-3.5-1.4-5.6-1.8
		c-2-0.5-4.2-0.7-6.6-0.7c-4.1,0-7.3,0.8-9.6,2.4c-2.3,1.6-3.5,3.9-3.5,6.9v0.2c0,2.6,1,4.6,2.9,6C307.3,78.8,309.8,79.5,312.9,79.5
		z"/>
	<path id="XMLID_122_" class="st0" d="M355.3,24.3h19v9.6c2.3-3.2,5.1-5.8,8.4-7.8c3.3-2,7.4-3.1,12.5-3.1c3.9,0,7.7,0.8,11.4,2.3
		c3.7,1.5,6.9,3.7,9.8,6.7c2.8,3,5.1,6.6,6.8,10.9c1.7,4.3,2.6,9.2,2.6,14.8v0.2c0,5.6-0.9,10.5-2.6,14.8c-1.7,4.3-4,7.9-6.8,10.9
		c-2.8,3-6,5.2-9.7,6.7c-3.7,1.5-7.5,2.3-11.5,2.3c-5.1,0-9.3-1-12.6-3c-3.3-2-6.1-4.3-8.3-7v28.8h-19V24.3z M390.3,76.5
		c2.3,0,4.4-0.4,6.3-1.3c2-0.9,3.7-2.1,5.2-3.8s2.7-3.6,3.6-5.8c0.9-2.3,1.3-4.8,1.3-7.6v-0.2c0-2.8-0.4-5.3-1.3-7.6
		c-0.9-2.3-2.1-4.3-3.6-5.9c-1.5-1.6-3.2-2.9-5.2-3.8c-2-0.9-4.1-1.3-6.3-1.3c-2.3,0-4.4,0.4-6.3,1.3c-2,0.9-3.7,2.1-5.1,3.8
		c-1.5,1.6-2.6,3.6-3.5,5.9c-0.9,2.3-1.3,4.8-1.3,7.6v0.2c0,2.8,0.4,5.3,1.3,7.6c0.9,2.3,2,4.3,3.5,5.9c1.5,1.6,3.2,2.9,5.1,3.8
		C386,76,388.1,76.5,390.3,76.5z"/>
	<path id="XMLID_125_" class="st0" d="M464.7,92.9c-5,0-9.7-0.8-14-2.5c-4.3-1.7-8-4-11.1-7.1c-3.1-3.1-5.6-6.7-7.3-11
		c-1.8-4.2-2.6-8.9-2.6-14.1v-0.3c0-4.8,0.8-9.3,2.4-13.5c1.6-4.3,3.9-8,6.8-11.1c2.9-3.2,6.4-5.7,10.5-7.5c4-1.8,8.5-2.8,13.5-2.8
		c5.6,0,10.4,1,14.5,3c4.1,2,7.5,4.7,10.2,8.1c2.7,3.4,4.7,7.3,6,11.6c1.3,4.4,1.9,8.9,1.9,13.7c0,0.8,0,1.5-0.1,2.4
		c0,0.8-0.1,1.7-0.2,2.6h-46.7c0.9,4.3,2.8,7.6,5.7,9.8c2.9,2.2,6.4,3.3,10.7,3.3c3.2,0,6-0.5,8.5-1.6c2.5-1.1,5.1-2.8,7.8-5.3
		l10.9,9.6c-3.2,3.9-7,7-11.5,9.2C476,91.8,470.7,92.9,464.7,92.9z M476.9,52.6c-0.6-4.3-2.1-7.7-4.5-10.3c-2.4-2.6-5.6-3.9-9.6-3.9
		c-4,0-7.2,1.3-9.7,3.9c-2.5,2.6-4.1,6-4.8,10.4H476.9z"/>
	<path id="XMLID_128_" class="st0" d="M502.7,24.3h19v13.5c1.9-4.6,4.5-8.3,7.9-11c3.3-2.8,7.8-4,13.5-3.8v19.9h-1
		c-6.3,0-11.3,1.9-15,5.8c-3.6,3.8-5.4,9.8-5.4,17.9v24.8h-19V24.3z"/>
	<path id="XMLID_130_" class="st0" d="M571.7,92.6c-4.8,0-9.6-0.8-14.6-2.4c-5-1.6-9.7-4.2-14.2-7.7L551,70c3.7,2.7,7.3,4.7,11,6
		c3.6,1.3,7,2,10.2,2c2.8,0,4.8-0.5,6.1-1.4c1.3-0.9,1.9-2.1,1.9-3.6v-0.2c0-1-0.4-1.9-1.1-2.6c-0.8-0.8-1.8-1.4-3.1-1.9
		c-1.3-0.5-2.8-1.1-4.4-1.6c-1.7-0.5-3.4-1-5.3-1.6c-2.3-0.7-4.7-1.5-7.1-2.4c-2.4-1-4.5-2.2-6.4-3.8c-1.9-1.5-3.5-3.4-4.7-5.7
		c-1.2-2.3-1.8-5-1.8-8.3v-0.3c0-3.4,0.6-6.4,1.9-9.1c1.3-2.6,3-4.9,5.3-6.7c2.2-1.8,4.8-3.2,7.8-4.1c3-0.9,6.2-1.4,9.6-1.4
		c4.3,0,8.6,0.7,13,2.1s8.4,3.3,12.1,5.7l-7.3,13.1c-3.3-1.9-6.6-3.4-9.8-4.6c-3.2-1.1-6-1.7-8.4-1.7c-2.3,0-4.1,0.4-5.3,1.3
		c-1.2,0.9-1.8,2-1.8,3.3v0.3c0,0.9,0.4,1.7,1.1,2.4c0.8,0.7,1.8,1.4,3,2c1.3,0.6,2.7,1.2,4.3,1.8c1.6,0.6,3.4,1.2,5.2,1.8
		c2.3,0.8,4.7,1.6,7.1,2.7c2.4,1,4.6,2.3,6.5,3.8c1.9,1.5,3.5,3.3,4.8,5.5c1.3,2.2,1.9,4.8,1.9,7.9V71c0,3.8-0.6,7-1.9,9.7
		c-1.3,2.7-3.1,4.9-5.4,6.7c-2.3,1.8-5.1,3.1-8.2,3.9C578.6,92.2,575.2,92.6,571.7,92.6z"/>
	<path id="XMLID_132_" class="st0" d="M603.3,71.3h20.1v20h-20.1V71.3z"/>
</g>
</svg>
