<!-- Generator: Adobe Illustrator 19.0.0, SVG Export Plug-In . SVG Version: 6.00 Build 0)  -->
<svg version="1.1" id="Layer_1" xmlns="http://www.w3.org/2000/svg" xmlns:xlink="http://www.w3.org/1999/xlink" x="0px" y="0px"
	 viewBox="0 0 461.2 69.7" style="enable-background:new 0 0 461.2 69.7;" xml:space="preserve">
<style type="text/css">
	<!--THIS LINE IS THE COLOR OF THE SVG FILL-->
	.st0{fill:#383838;}
</style>
<g id="XMLID_300_">
	<rect id="XMLID_371_" x="0" y="0" class="st0" width="42.1" height="10.1"/>
	<rect id="XMLID_423_" x="172.1" y="0" class="st0" width="42.1" height="10.1"/>
	<path id="XMLID_395_" class="st0" d="M0,17.6h11.4v5.8c1.4-1.9,3.1-3.5,5-4.7c2-1.2,4.4-1.8,7.4-1.8c2.3,0,4.6,0.4,6.8,1.3
		c2.2,0.9,4.1,2.2,5.8,4c1.7,1.8,3.1,3.9,4.1,6.5c1,2.6,1.5,5.5,1.5,8.9v0.1c0,3.3-0.5,6.3-1.5,8.9c-1,2.6-2.4,4.7-4,6.5
		c-1.7,1.8-3.6,3.1-5.8,4c-2.2,0.9-4.5,1.3-6.9,1.3c-3,0-5.5-0.6-7.5-1.8c-2-1.2-3.6-2.6-5-4.2v17.2H0V17.6z M20.9,48.8
		c1.3,0,2.6-0.3,3.8-0.8c1.2-0.5,2.2-1.3,3.1-2.2c0.9-1,1.6-2.1,2.1-3.5c0.5-1.3,0.8-2.9,0.8-4.6v-0.1c0-1.6-0.3-3.2-0.8-4.5
		c-0.5-1.4-1.2-2.5-2.1-3.5c-0.9-1-1.9-1.7-3.1-2.2c-1.2-0.5-2.4-0.8-3.8-0.8c-1.3,0-2.6,0.3-3.8,0.8c-1.2,0.5-2.2,1.3-3.1,2.2
		c-0.9,1-1.6,2.1-2.1,3.5c-0.5,1.4-0.8,2.9-0.8,4.5v0.1c0,1.6,0.3,3.2,0.8,4.5c0.5,1.4,1.2,2.5,2.1,3.5c0.9,1,1.9,1.7,3.1,2.2
		C18.3,48.5,19.6,48.8,20.9,48.8z"/>
	<path id="XMLID_398_" class="st0" d="M57.9,0h11.4v23.4c0.6-0.9,1.4-1.7,2.1-2.4c0.8-0.8,1.6-1.5,2.6-2.1c0.9-0.6,2-1.1,3.1-1.4
		c1.1-0.4,2.4-0.5,3.9-0.5c4.3,0,7.7,1.3,10.1,4c2.4,2.6,3.6,6.3,3.6,10.9v25.9H83.3V35.4c0-2.7-0.6-4.7-1.8-6.1
		c-1.2-1.4-2.9-2.1-5.1-2.1c-2.2,0-3.9,0.7-5.2,2.1c-1.3,1.4-1.9,3.4-1.9,6.1v22.3H57.9V0z"/>
	<path id="XMLID_400_" class="st0" d="M112.2,0h12v10.1h-12V0z M112.5,17.6h11.4v40.1h-11.4V17.6z"/>
	<path id="XMLID_403_" class="st0" d="M142.6,0h11.4v57.7h-11.4V0z"/>
	<path id="XMLID_405_" class="st0" d="M172.1,17.6h11.4v5.8c1.4-1.9,3.1-3.5,5-4.7c2-1.2,4.4-1.8,7.4-1.8c2.3,0,4.6,0.4,6.8,1.3
		c2.2,0.9,4.1,2.2,5.8,4c1.7,1.8,3.1,3.9,4.1,6.5c1,2.6,1.5,5.5,1.5,8.9v0.1c0,3.3-0.5,6.3-1.5,8.9c-1,2.6-2.4,4.7-4,6.5
		c-1.7,1.8-3.6,3.1-5.8,4c-2.2,0.9-4.5,1.3-6.9,1.3c-3,0-5.5-0.6-7.5-1.8c-2-1.2-3.6-2.6-5-4.2v17.2h-11.4V17.6z M193,48.8
		c1.3,0,2.6-0.3,3.8-0.8c1.2-0.5,2.2-1.3,3.1-2.2c0.9-1,1.6-2.1,2.1-3.5c0.5-1.3,0.8-2.9,0.8-4.6v-0.1c0-1.6-0.3-3.2-0.8-4.5
		c-0.5-1.4-1.2-2.5-2.1-3.5c-0.9-1-1.9-1.7-3.1-2.2c-1.2-0.5-2.4-0.8-3.8-0.8c-1.3,0-2.6,0.3-3.8,0.8c-1.2,0.5-2.2,1.3-3.1,2.2
		c-0.9,1-1.6,2.1-2.1,3.5c-0.5,1.4-0.8,2.9-0.8,4.5v0.1c0,1.6,0.3,3.2,0.8,4.5c0.5,1.4,1.2,2.5,2.1,3.5c0.9,1,1.9,1.7,3.1,2.2
		C190.4,48.5,191.7,48.8,193,48.8z"/>
	<path id="XMLID_408_" class="st0" d="M241.4,58.4c-1.9,0-3.7-0.3-5.3-0.8c-1.7-0.5-3.1-1.3-4.4-2.4c-1.2-1-2.2-2.3-3-3.9
		s-1.1-3.3-1.1-5.3V46c0-2.2,0.4-4.1,1.2-5.7c0.8-1.6,1.9-2.9,3.3-4c1.4-1,3.1-1.8,5.1-2.4c2-0.5,4.1-0.8,6.5-0.8
		c2,0,3.8,0.1,5.3,0.4c1.5,0.3,3,0.7,4.4,1.2v-0.7c0-2.4-0.7-4.2-2.2-5.5c-1.4-1.2-3.6-1.9-6.4-1.9c-2.2,0-4.1,0.2-5.8,0.6
		c-1.7,0.4-3.4,0.9-5.3,1.6l-2.8-8.7c2.2-0.9,4.5-1.7,6.9-2.3c2.4-0.6,5.3-0.9,8.7-0.9c3.1,0,5.8,0.4,8,1.2c2.2,0.8,4,1.9,5.5,3.3
		c1.5,1.5,2.6,3.3,3.3,5.5c0.7,2.2,1,4.6,1,7.3v23.3h-11v-4.3c-1.4,1.5-3.1,2.8-5,3.7C246.6,58,244.2,58.4,241.4,58.4z M244.9,50.6
		c2.7,0,4.8-0.6,6.5-1.9c1.6-1.3,2.4-3,2.4-5.1v-2c-1-0.4-2.1-0.8-3.3-1.1c-1.2-0.3-2.5-0.4-3.9-0.4c-2.4,0-4.4,0.5-5.8,1.4
		c-1.4,0.9-2.1,2.3-2.1,4.1v0.1c0,1.5,0.6,2.7,1.7,3.6C241.5,50.2,243,50.6,244.9,50.6z"/>
	<path id="XMLID_411_" class="st0" d="M281.8,17.6h11.4v5.8c1.4-1.9,3.1-3.5,5-4.7c2-1.2,4.4-1.8,7.4-1.8c2.3,0,4.6,0.4,6.8,1.3
		c2.2,0.9,4.1,2.2,5.8,4c1.7,1.8,3.1,3.9,4.1,6.5c1,2.6,1.5,5.5,1.5,8.9v0.1c0,3.3-0.5,6.3-1.5,8.9c-1,2.6-2.4,4.7-4,6.5
		c-1.7,1.8-3.6,3.1-5.8,4c-2.2,0.9-4.5,1.3-6.9,1.3c-3,0-5.5-0.6-7.5-1.8c-2-1.2-3.6-2.6-5-4.2v17.2h-11.4V17.6z M302.7,48.8
		c1.3,0,2.6-0.3,3.8-0.8c1.2-0.5,2.2-1.3,3.1-2.2c0.9-1,1.6-2.1,2.1-3.5c0.5-1.3,0.8-2.9,0.8-4.6v-0.1c0-1.6-0.3-3.2-0.8-4.5
		c-0.5-1.4-1.2-2.5-2.1-3.5c-0.9-1-1.9-1.7-3.1-2.2c-1.2-0.5-2.4-0.8-3.8-0.8c-1.3,0-2.6,0.3-3.8,0.8c-1.2,0.5-2.2,1.3-3.1,2.2
		c-0.9,1-1.6,2.1-2.1,3.5c-0.5,1.4-0.8,2.9-0.8,4.5v0.1c0,1.6,0.3,3.2,0.8,4.5c0.5,1.4,1.2,2.5,2.1,3.5c0.9,1,1.9,1.7,3.1,2.2
		C300.1,48.5,301.4,48.8,302.7,48.8z"/>
	<path id="XMLID_414_" class="st0" d="M358.7,58.6c-3,0-5.8-0.5-8.3-1.5c-2.6-1-4.8-2.4-6.7-4.3c-1.9-1.8-3.3-4-4.4-6.5
		c-1-2.5-1.6-5.3-1.6-8.4v-0.1c0-2.8,0.5-5.5,1.5-8.1c1-2.5,2.3-4.8,4.1-6.7c1.7-1.9,3.8-3.4,6.2-4.5c2.4-1.1,5.1-1.6,8-1.6
		c3.3,0,6.2,0.6,8.7,1.8c2.4,1.2,4.5,2.8,6.1,4.8c1.6,2,2.8,4.3,3.6,7c0.8,2.6,1.2,5.3,1.2,8.2c0,0.4,0,0.9,0,1.4
		c0,0.5-0.1,1-0.1,1.6h-27.9c0.5,2.6,1.7,4.5,3.4,5.9c1.7,1.3,3.9,2,6.4,2c1.9,0,3.6-0.3,5.1-1c1.5-0.6,3-1.7,4.6-3.1l6.5,5.8
		c-1.9,2.3-4.2,4.2-6.9,5.5C365.5,57.9,362.4,58.6,358.7,58.6z M366.1,34.5c-0.3-2.5-1.2-4.6-2.7-6.2c-1.4-1.6-3.4-2.4-5.8-2.4
		c-2.4,0-4.3,0.8-5.8,2.3c-1.5,1.5-2.4,3.6-2.9,6.2H366.1z"/>
	<path id="XMLID_417_" class="st0" d="M393.1,17.6h11.4v8.1c1.1-2.7,2.7-4.9,4.7-6.6c2-1.6,4.7-2.4,8.1-2.2v11.9h-0.6
		c-3.8,0-6.8,1.1-8.9,3.4c-2.2,2.3-3.3,5.9-3.3,10.7v14.8h-11.4V17.6z"/>
	<path id="XMLID_421_" class="st0" d="M445.8,58.4c-2.8,0-5.7-0.5-8.7-1.5s-5.8-2.5-8.5-4.6l4.9-7.5c2.2,1.6,4.4,2.8,6.5,3.6
		c2.2,0.8,4.2,1.2,6.1,1.2c1.6,0,2.9-0.3,3.6-0.8c0.8-0.5,1.2-1.3,1.2-2.2v-0.1c0-0.6-0.2-1.1-0.7-1.6c-0.4-0.4-1.1-0.8-1.8-1.2
		c-0.8-0.3-1.7-0.6-2.7-0.9c-1-0.3-2-0.6-3.1-1c-1.4-0.4-2.8-0.9-4.2-1.5c-1.4-0.6-2.7-1.3-3.9-2.2c-1.1-0.9-2.1-2.1-2.8-3.4
		c-0.7-1.3-1.1-3-1.1-4.9v-0.1c0-2,0.4-3.9,1.2-5.4c0.8-1.6,1.8-2.9,3.1-4c1.3-1.1,2.9-1.9,4.6-2.5c1.8-0.5,3.7-0.8,5.7-0.8
		c2.5,0,5.1,0.4,7.7,1.2c2.6,0.8,5,2,7.2,3.4l-4.3,7.9c-2-1.1-3.9-2.1-5.8-2.7c-1.9-0.7-3.6-1-5-1c-1.4,0-2.4,0.3-3.1,0.8
		c-0.7,0.5-1,1.2-1,2v0.1c0,0.5,0.2,1,0.7,1.5c0.4,0.4,1,0.8,1.8,1.2c0.7,0.4,1.6,0.7,2.6,1.1c1,0.3,2,0.7,3.1,1
		c1.4,0.4,2.8,1,4.3,1.6c1.4,0.6,2.7,1.4,3.9,2.3c1.1,0.9,2.1,2,2.8,3.3c0.7,1.3,1.1,2.9,1.1,4.7v0.1c0,2.2-0.4,4.2-1.2,5.8
		c-0.8,1.6-1.9,3-3.3,4c-1.4,1-3,1.8-4.9,2.4C450,58.2,448,58.4,445.8,58.4z"/>
</g>
</svg>
