<?xml version="1.0" encoding="utf-8"?>
<!-- Generator: Adobe Illustrator 19.0.0, SVG Export Plug-In . SVG Version: 6.00 Build 0)  -->
<svg version="1.1" id="Layer_1" xmlns="http://www.w3.org/2000/svg" xmlns:xlink="http://www.w3.org/1999/xlink" x="0px" y="0px"
	 viewBox="0 0 760.9 113.7" style="enable-background:new 0 0 760.9 113.7;" xml:space="preserve">
<style type="text/css">
	.st0{fill:#606060;}
</style>
<g id="XMLID_547_">
	<path id="XMLID_486_" class="st0" d="M0,25.9h15.6v11.3c2.5-3.6,5.5-6.6,9.2-9c3.7-2.4,8.2-3.7,13.7-3.7c4,0,7.9,0.8,11.6,2.3
		c3.8,1.5,7.1,3.8,10,6.8c2.9,3,5.3,6.7,7.1,11C69.1,49,70,54,70,59.7v0.3c0,5.6-0.9,10.6-2.6,15c-1.7,4.4-4.1,8-7,11
		c-2.9,3-6.3,5.3-10.1,6.8c-3.8,1.5-7.7,2.3-11.7,2.3c-5.5,0-10.2-1.2-13.8-3.6c-3.7-2.4-6.7-5.2-9.1-8.3v31H0V25.9z M35,81.6
		c2.7,0,5.2-0.5,7.5-1.5c2.4-1,4.4-2.5,6.2-4.3c1.8-1.8,3.1-4.1,4.2-6.8c1-2.7,1.5-5.7,1.5-9v-0.3c0-3.2-0.5-6.2-1.5-8.9
		c-1-2.7-2.4-5-4.2-6.9c-1.8-1.9-3.8-3.3-6.2-4.4c-2.4-1-4.9-1.5-7.5-1.5c-2.7,0-5.2,0.5-7.6,1.5c-2.4,1-4.5,2.5-6.3,4.4
		c-1.8,1.9-3.2,4.2-4.3,6.9c-1.1,2.7-1.6,5.6-1.6,8.9v0.3c0,3.3,0.5,6.2,1.6,8.9c1.1,2.7,2.5,5,4.3,6.9c1.8,1.9,3.9,3.3,6.3,4.4
		C29.8,81.1,32.4,81.6,35,81.6z"/>
	<path id="XMLID_489_" class="st0" d="M92.4,0H108v36.5c1.1-1.6,2.3-3.2,3.6-4.6c1.3-1.4,2.9-2.7,4.6-3.8s3.7-2,5.8-2.7
		c2.1-0.6,4.5-1,7.1-1c7.7,0,13.6,2.4,17.8,7.1c4.2,4.7,6.3,11,6.3,19v43.1h-15.6V55.3c0-5.3-1.3-9.4-3.8-12.2
		c-2.5-2.9-6-4.3-10.6-4.3c-4.5,0-8.1,1.5-10.9,4.4c-2.8,2.9-4.2,7.1-4.2,12.3v38.1H92.4V0z"/>
	<path id="XMLID_491_" class="st0" d="M178.6,0.8h16.8v14.8h-16.8V0.8z M179.2,25.9h15.6v67.7h-15.6V25.9z"/>
	<path id="XMLID_494_" class="st0" d="M222.3,0H238v93.6h-15.6V0z"/>
	<path id="XMLID_485_" class="st0" d="M0,15.6L0,0l68.1,0v15.6H0z"/>
	<path id="XMLID_515_" class="st0" d="M266.5,15.6V0l68.1,0v15.6H266.5z"/>
	<path id="XMLID_496_" class="st0" d="M264.5,25.9h15.7v11.3c2.5-3.6,5.5-6.6,9.2-9c3.7-2.4,8.2-3.7,13.7-3.7c4,0,7.9,0.8,11.6,2.3
		c3.8,1.5,7.1,3.8,10,6.8c2.9,3,5.3,6.7,7.1,11c1.8,4.4,2.7,9.4,2.7,15v0.3c0,5.6-0.9,10.6-2.6,15c-1.7,4.4-4.1,8-7,11
		c-2.9,3-6.3,5.3-10.1,6.8s-7.7,2.3-11.7,2.3c-5.5,0-10.2-1.2-13.8-3.6c-3.7-2.4-6.7-5.2-9.1-8.3v31h-15.7V25.9z M299.5,81.6
		c2.6,0,5.2-0.5,7.5-1.5c2.4-1,4.4-2.5,6.2-4.3c1.8-1.8,3.1-4.1,4.2-6.8c1-2.7,1.5-5.7,1.5-9v-0.3c0-3.2-0.5-6.2-1.5-8.9
		c-1-2.7-2.4-5-4.2-6.9c-1.8-1.9-3.8-3.3-6.2-4.4c-2.4-1-4.9-1.5-7.5-1.5c-2.7,0-5.2,0.5-7.6,1.5c-2.4,1-4.5,2.5-6.3,4.4
		c-1.8,1.9-3.2,4.2-4.3,6.9c-1.1,2.7-1.6,5.6-1.6,8.9v0.3c0,3.3,0.5,6.2,1.6,8.9c1.1,2.7,2.5,5,4.3,6.9c1.8,1.9,3.9,3.3,6.3,4.4
		C294.4,81.1,296.9,81.6,299.5,81.6z"/>
	<path id="XMLID_499_" class="st0" d="M398.3,93.6v-8.3c-2.3,2.7-5.3,5-8.9,6.9c-3.6,1.9-8,2.8-13.1,2.8c-3.3,0-6.3-0.4-9.2-1.3
		c-2.9-0.9-5.5-2.2-7.6-4c-2.2-1.8-3.9-3.9-5.3-6.5c-1.3-2.6-2-5.6-2-9v-0.3c0-3.8,0.7-7,2.1-9.8c1.4-2.8,3.3-5.1,5.7-6.9
		c2.4-1.8,5.3-3.2,8.7-4.1c3.4-0.9,7-1.3,11-1.3c4.1,0,7.6,0.3,10.5,0.8c2.9,0.5,5.6,1.2,8.3,2.1v-1.3c0-4.7-1.4-8.3-4.3-10.8
		c-2.9-2.5-7-3.7-12.4-3.7c-3.8,0-7.3,0.4-10.3,1.2c-3,0.8-6,1.8-9.1,3.1l-4.2-12.4c3.8-1.7,7.6-3.1,11.5-4.1
		c3.9-1,8.7-1.5,14.2-1.5c10.1,0,17.6,2.5,22.4,7.5c4.9,5,7.3,12,7.3,21.1v40.2H398.3z M398.7,65.3c-2-0.8-4.3-1.4-7-1.9
		c-2.7-0.5-5.5-0.8-8.5-0.8c-4.9,0-8.7,0.9-11.4,2.8c-2.7,1.9-4.1,4.4-4.1,7.7v0.3c0,3.3,1.3,5.7,3.8,7.4c2.5,1.7,5.6,2.6,9.3,2.6
		c2.6,0,4.9-0.3,7.1-1c2.2-0.7,4.1-1.6,5.7-2.9c1.6-1.2,2.9-2.7,3.8-4.5c0.9-1.8,1.3-3.7,1.3-5.8V65.3z"/>
	<path id="XMLID_502_" class="st0" d="M438.6,25.9h15.7v11.3c2.5-3.6,5.5-6.6,9.2-9c3.7-2.4,8.2-3.7,13.7-3.7c4,0,7.9,0.8,11.6,2.3
		c3.8,1.5,7.1,3.8,10,6.8c2.9,3,5.3,6.7,7.1,11c1.8,4.4,2.7,9.4,2.7,15v0.3c0,5.6-0.9,10.6-2.6,15c-1.7,4.4-4.1,8-7,11
		c-2.9,3-6.3,5.3-10.1,6.8c-3.8,1.5-7.7,2.3-11.7,2.3c-5.5,0-10.2-1.2-13.8-3.6c-3.7-2.4-6.7-5.2-9.1-8.3v31h-15.7V25.9z
		 M473.6,81.6c2.6,0,5.2-0.5,7.5-1.5c2.4-1,4.4-2.5,6.2-4.3c1.8-1.8,3.1-4.1,4.2-6.8c1-2.7,1.5-5.7,1.5-9v-0.3
		c0-3.2-0.5-6.2-1.5-8.9c-1-2.7-2.4-5-4.2-6.9c-1.8-1.9-3.8-3.3-6.2-4.4c-2.4-1-4.9-1.5-7.5-1.5c-2.7,0-5.2,0.5-7.6,1.5
		c-2.4,1-4.5,2.5-6.3,4.4c-1.8,1.9-3.2,4.2-4.3,6.9c-1.1,2.7-1.6,5.6-1.6,8.9v0.3c0,3.3,0.5,6.2,1.6,8.9c1.1,2.7,2.5,5,4.3,6.9
		c1.8,1.9,3.9,3.3,6.3,4.4C468.5,81.1,471,81.6,473.6,81.6z"/>
	<path id="XMLID_505_" class="st0" d="M562,95.2c-4.9,0-9.4-0.9-13.7-2.6c-4.2-1.7-7.9-4.1-11-7.2c-3.1-3.1-5.6-6.8-7.4-11.1
		c-1.8-4.3-2.7-9.1-2.7-14.3v-0.3c0-4.9,0.8-9.4,2.4-13.7c1.6-4.3,3.9-8,6.9-11.2c3-3.2,6.4-5.7,10.5-7.6c4-1.8,8.5-2.8,13.3-2.8
		c5.4,0,10.1,1,14.2,3c4.1,2,7.4,4.6,10.1,8c2.7,3.3,4.7,7.2,6.1,11.6c1.4,4.4,2.1,9,2.1,13.9c0,0.7,0,1.4-0.1,2.1
		c0,0.7-0.1,1.5-0.2,2.2h-49.8c0.9,5.6,3.1,9.8,6.6,12.8c3.5,3,7.8,4.4,12.9,4.4c3.8,0,7.2-0.7,10-2.1c2.8-1.4,5.6-3.4,8.3-6
		l9.1,8.1c-3.3,3.8-7.1,6.9-11.6,9.2C573.6,94,568.3,95.2,562,95.2z M577.4,55c-0.3-2.5-0.8-4.8-1.7-7s-2-4.1-3.5-5.6
		c-1.5-1.6-3.2-2.8-5.2-3.8c-2-0.9-4.3-1.4-6.9-1.4c-4.8,0-8.7,1.6-11.9,4.9c-3.1,3.3-5,7.6-5.7,12.9H577.4z"/>
	<path id="XMLID_508_" class="st0" d="M614.9,25.9h15.7v15.3c2.1-5.1,5.2-9.2,9.1-12.3c3.9-3.1,8.9-4.5,14.9-4.2v16.4h-0.9
		c-3.4,0-6.5,0.6-9.4,1.7c-2.8,1.1-5.3,2.8-7.3,5c-2.1,2.2-3.6,5-4.7,8.4c-1.1,3.4-1.7,7.3-1.7,11.7v25.8h-15.7V25.9z"/>
	<path id="XMLID_510_" class="st0" d="M697.5,94.9c-4.9,0-9.8-0.9-14.8-2.6c-5-1.7-9.6-4.3-13.9-7.6l6.9-10.5
		c3.7,2.7,7.4,4.8,11.2,6.2c3.8,1.4,7.5,2.1,11,2.1c3.3,0,5.9-0.7,7.8-2c1.8-1.3,2.8-3.1,2.8-5.3v-0.3c0-1.3-0.4-2.4-1.2-3.3
		c-0.8-0.9-1.9-1.8-3.3-2.4c-1.4-0.7-3-1.3-4.9-1.9c-1.8-0.6-3.7-1.2-5.7-1.8c-2.5-0.7-5-1.5-7.5-2.4s-4.8-2.2-6.8-3.6
		c-2-1.5-3.7-3.3-4.9-5.6c-1.3-2.2-1.9-4.9-1.9-8.2v-0.3c0-3.2,0.6-6,1.9-8.6c1.2-2.6,3-4.7,5.1-6.5c2.2-1.8,4.7-3.2,7.7-4.1
		c2.9-0.9,6.1-1.4,9.4-1.4c4.3,0,8.6,0.7,13,2.1c4.4,1.4,8.3,3.3,11.9,5.7l-6.2,11.1c-3.2-2-6.5-3.5-9.9-4.7
		c-3.3-1.2-6.4-1.7-9.2-1.7c-3,0-5.3,0.6-7,1.9c-1.7,1.3-2.5,2.9-2.5,4.9v0.3c0,1.2,0.4,2.2,1.3,3.1c0.9,0.9,2,1.7,3.4,2.4
		c1.4,0.7,3,1.4,4.9,2c1.8,0.6,3.7,1.3,5.7,1.9c2.5,0.8,5,1.7,7.4,2.7c2.5,1,4.7,2.3,6.7,3.8c2,1.5,3.7,3.3,4.9,5.4
		c1.3,2.1,1.9,4.7,1.9,7.8v0.3c0,3.6-0.6,6.7-1.9,9.3c-1.3,2.6-3.1,4.8-5.3,6.6c-2.3,1.8-4.9,3.1-8,4
		C704.3,94.5,701,94.9,697.5,94.9z"/>
	<path id="XMLID_512_" class="st0" d="M743.8,76.1h17.1v17.6h-17.1V76.1z"/>
</g>
</svg>
