<?xml version="1.0" encoding="utf-8"?>
<!-- Generator: Adobe Illustrator 19.0.0, SVG Export Plug-In . SVG Version: 6.00 Build 0)  -->
<svg version="1.1" id="Layer_1" xmlns="http://www.w3.org/2000/svg" xmlns:xlink="http://www.w3.org/1999/xlink" x="0px" y="0px"
	 viewBox="0 0 557 95" style="enable-background:new 0 0 557 95;" xml:space="preserve">
<style type="text/css">
	.st0{fill:#6BC5E6;}
	.st1{fill:#5C5C5C;}
	.st2{fill:#36D7B7;}
</style>
<g id="XMLID_591_">
	<rect id="XMLID_562_" x="0.4" y="0" class="st0" width="60.1" height="14.4"/>
	<path id="XMLID_592_" class="st1" d="M0.4,20.7h16.2v8.2c2-2.7,4.4-4.9,7.2-6.7c2.8-1.7,6.3-2.6,10.6-2.6c3.3,0,6.6,0.6,9.7,1.9
		c3.1,1.3,5.9,3.2,8.3,5.7c2.4,2.5,4.4,5.6,5.8,9.3c1.5,3.7,2.2,7.9,2.2,12.6v0.2c0,4.8-0.7,9-2.2,12.6c-1.5,3.7-3.4,6.8-5.8,9.3
		c-2.4,2.5-5.1,4.4-8.3,5.7c-3.1,1.3-6.4,1.9-9.8,1.9c-4.3,0-7.9-0.9-10.7-2.6c-2.8-1.7-5.2-3.7-7.1-6V95H0.4V20.7z M30.3,65.2
		c1.9,0,3.7-0.4,5.4-1.1c1.7-0.7,3.1-1.8,4.4-3.2c1.3-1.4,2.3-3,3-5c0.7-1.9,1.1-4.1,1.1-6.5v-0.2c0-2.3-0.4-4.5-1.1-6.5
		c-0.7-2-1.8-3.6-3-5c-1.3-1.4-2.8-2.5-4.4-3.2c-1.7-0.7-3.5-1.1-5.4-1.1c-1.9,0-3.7,0.4-5.4,1.1c-1.7,0.7-3.1,1.8-4.4,3.2
		c-1.2,1.4-2.2,3.1-3,5c-0.7,2-1.1,4.1-1.1,6.5v0.2c0,2.3,0.4,4.5,1.1,6.5c0.7,2,1.7,3.6,3,5c1.2,1.4,2.7,2.5,4.4,3.2
		S28.4,65.2,30.3,65.2z"/>
	<path id="XMLID_595_" class="st1" d="M66.6,0h16.2v28.9c0.9-1.2,1.9-2.4,3-3.5c1.1-1.1,2.3-2.1,3.7-3c1.4-0.9,2.8-1.5,4.5-2
		c1.6-0.5,3.5-0.8,5.5-0.8c6.2,0,11,1.9,14.4,5.7c3.4,3.8,5.1,9,5.1,15.6v37h-16.2V46.1c0-3.8-0.9-6.7-2.6-8.7
		c-1.7-2-4.1-2.9-7.3-2.9c-3.1,0-5.6,1-7.4,2.9c-1.8,2-2.7,4.8-2.7,8.7v31.8H66.6V0z"/>
	<path id="XMLID_597_" class="st1" d="M127.5,0h17.1v14.4h-17.1V0z M127.9,20.7h16.2v57.2h-16.2V20.7z"/>
	<path id="XMLID_600_" class="st1" d="M154.3,0h16.2v77.9h-16.2V0z"/>
	<path id="XMLID_602_" class="st1" d="M179.2,60.8h17.2v17.1h-17.2V60.8z"/>
	<path id="XMLID_604_" class="st1" d="M204.5,20.7h16.2v8.2c2-2.7,4.4-4.9,7.2-6.7c2.8-1.7,6.3-2.6,10.6-2.6c3.3,0,6.6,0.6,9.7,1.9
		c3.1,1.3,5.9,3.2,8.3,5.7c2.4,2.5,4.4,5.6,5.8,9.3c1.5,3.7,2.2,7.9,2.2,12.6v0.2c0,4.8-0.7,9-2.2,12.6c-1.5,3.7-3.4,6.8-5.8,9.3
		c-2.4,2.5-5.1,4.4-8.3,5.7c-3.1,1.3-6.4,1.9-9.8,1.9c-4.3,0-7.9-0.9-10.7-2.6c-2.8-1.7-5.2-3.7-7.1-6V95h-16.2V20.7z M234.4,65.2
		c1.9,0,3.7-0.4,5.4-1.1c1.7-0.7,3.1-1.8,4.4-3.2c1.3-1.4,2.3-3,3-5c0.7-1.9,1.1-4.1,1.1-6.5v-0.2c0-2.3-0.4-4.5-1.1-6.5
		c-0.7-2-1.8-3.6-3-5c-1.3-1.4-2.8-2.5-4.4-3.2c-1.7-0.7-3.5-1.1-5.4-1.1c-1.9,0-3.7,0.4-5.4,1.1c-1.7,0.7-3.1,1.8-4.4,3.2
		c-1.2,1.4-2.2,3.1-3,5c-0.7,2-1.1,4.1-1.1,6.5v0.2c0,2.3,0.4,4.5,1.1,6.5c0.7,2,1.7,3.6,3,5c1.2,1.4,2.7,2.5,4.4,3.2
		C230.7,64.8,232.5,65.2,234.4,65.2z"/>
	<path id="XMLID_607_" class="st1" d="M286.9,79c-2.7,0-5.2-0.4-7.6-1.1c-2.4-0.7-4.5-1.9-6.2-3.4c-1.8-1.5-3.2-3.3-4.2-5.5
		c-1-2.2-1.5-4.7-1.5-7.5v-0.2c0-3.1,0.6-5.8,1.7-8.1c1.1-2.3,2.7-4.2,4.7-5.7c2-1.5,4.4-2.6,7.3-3.4c2.8-0.7,5.9-1.1,9.3-1.1
		c2.9,0,5.5,0.2,7.6,0.6c2.2,0.4,4.3,1,6.3,1.7v-1c0-3.4-1-6-3.1-7.8c-2.1-1.8-5.1-2.7-9.2-2.7c-3.1,0-5.9,0.3-8.3,0.8
		c-2.4,0.5-4.9,1.3-7.5,2.3l-4.1-12.4c3.1-1.4,6.4-2.5,9.8-3.3c3.4-0.9,7.5-1.3,12.4-1.3c4.5,0,8.3,0.6,11.5,1.7
		c3.2,1.1,5.8,2.7,7.8,4.7c2.1,2.1,3.7,4.7,4.7,7.8c1,3.1,1.5,6.6,1.5,10.4v33.2h-15.7v-6.2c-2,2.2-4.4,4-7.1,5.3
		C294.3,78.3,290.9,79,286.9,79z M291.8,67.8c3.8,0,6.9-0.9,9.2-2.8c2.3-1.8,3.5-4.3,3.5-7.3v-2.9c-1.4-0.6-3-1.2-4.7-1.5
		c-1.7-0.4-3.6-0.6-5.6-0.6c-3.5,0-6.2,0.7-8.2,2c-2,1.4-3,3.3-3,5.9v0.2c0,2.2,0.8,3.9,2.5,5.1C287,67.2,289.2,67.8,291.8,67.8z"/>
	<path id="XMLID_610_" class="st1" d="M328,20.7h16.2v8.2c2-2.7,4.4-4.9,7.2-6.7c2.8-1.7,6.3-2.6,10.6-2.6c3.3,0,6.6,0.6,9.7,1.9
		c3.1,1.3,5.9,3.2,8.3,5.7c2.4,2.5,4.4,5.6,5.8,9.3c1.5,3.7,2.2,7.9,2.2,12.6v0.2c0,4.8-0.7,9-2.2,12.6c-1.5,3.7-3.4,6.8-5.8,9.3
		c-2.4,2.5-5.1,4.4-8.3,5.7c-3.1,1.3-6.4,1.9-9.8,1.9c-4.3,0-7.9-0.9-10.7-2.6c-2.8-1.7-5.2-3.7-7.1-6V95H328V20.7z M357.9,65.2
		c1.9,0,3.7-0.4,5.4-1.1c1.7-0.7,3.1-1.8,4.4-3.2c1.3-1.4,2.3-3,3-5c0.7-1.9,1.1-4.1,1.1-6.5v-0.2c0-2.3-0.4-4.5-1.1-6.5
		c-0.7-2-1.8-3.6-3-5c-1.3-1.4-2.8-2.5-4.4-3.2c-1.7-0.7-3.5-1.1-5.4-1.1c-1.9,0-3.7,0.4-5.4,1.1c-1.7,0.7-3.1,1.8-4.4,3.2
		c-1.2,1.4-2.2,3.1-3,5c-0.7,2-1.1,4.1-1.1,6.5v0.2c0,2.3,0.4,4.5,1.1,6.5c0.7,2,1.7,3.6,3,5c1.2,1.4,2.7,2.5,4.4,3.2
		S355.9,65.2,357.9,65.2z"/>
	<path id="XMLID_613_" class="st1" d="M421.2,79.2c-4.3,0-8.2-0.7-11.9-2.1c-3.7-1.4-6.8-3.4-9.5-6.1c-2.7-2.6-4.7-5.7-6.2-9.3
		c-1.5-3.6-2.2-7.6-2.2-12v-0.2c0-4.1,0.7-7.9,2.1-11.5s3.3-6.8,5.8-9.5c2.5-2.7,5.5-4.8,8.9-6.4c3.4-1.6,7.3-2.3,11.5-2.3
		c4.8,0,8.9,0.9,12.4,2.6c3.5,1.7,6.4,4,8.7,6.9c2.3,2.9,4,6.2,5.1,9.9c1.1,3.7,1.7,7.6,1.7,11.7c0,0.6,0,1.3-0.1,2
		c0,0.7-0.1,1.5-0.2,2.2h-39.8c0.8,3.7,2.4,6.5,4.9,8.4c2.5,1.9,5.5,2.8,9.1,2.8c2.7,0,5.1-0.5,7.3-1.4c2.1-0.9,4.3-2.4,6.6-4.5
		l9.3,8.2c-2.7,3.3-6,6-9.8,7.8C430.9,78.2,426.4,79.2,421.2,79.2z M431.7,44.8c-0.5-3.6-1.8-6.6-3.8-8.8c-2.1-2.2-4.8-3.4-8.2-3.4
		c-3.4,0-6.2,1.1-8.3,3.3c-2.1,2.2-3.5,5.2-4.1,8.9H431.7z"/>
	<path id="XMLID_616_" class="st1" d="M453.7,20.7h16.2v11.5c1.6-3.9,3.9-7,6.7-9.4c2.8-2.3,6.7-3.4,11.5-3.2v17h-0.9
		c-5.4,0-9.7,1.6-12.8,4.9c-3.1,3.3-4.6,8.4-4.6,15.3v21.1h-16.2V20.7z"/>
	<path id="XMLID_618_" class="st1" d="M512.5,79c-4.1,0-8.2-0.7-12.4-2.1c-4.2-1.4-8.3-3.6-12.1-6.6l6.9-10.7c3.1,2.3,6.2,4,9.3,5.1
		c3.1,1.1,6,1.7,8.7,1.7c2.3,0,4.1-0.4,5.2-1.2c1.1-0.8,1.7-1.8,1.7-3.1V62c0-0.9-0.3-1.6-1-2.2c-0.6-0.6-1.5-1.2-2.6-1.7
		c-1.1-0.5-2.4-0.9-3.8-1.3c-1.4-0.4-2.9-0.9-4.5-1.4c-2-0.6-4-1.3-6-2.1c-2-0.8-3.9-1.9-5.5-3.2c-1.6-1.3-3-2.9-4-4.9
		c-1-1.9-1.5-4.3-1.5-7V38c0-2.9,0.6-5.5,1.7-7.7c1.1-2.2,2.6-4.1,4.5-5.7c1.9-1.6,4.1-2.7,6.6-3.5c2.5-0.8,5.2-1.2,8.2-1.2
		c3.6,0,7.3,0.6,11,1.8c3.7,1.2,7.2,2.8,10.3,4.9l-6.2,11.2c-2.8-1.6-5.6-2.9-8.3-3.9c-2.7-1-5.1-1.4-7.1-1.4c-2,0-3.5,0.4-4.5,1.1
		c-1,0.7-1.5,1.7-1.5,2.8v0.2c0,0.8,0.3,1.5,1,2.1c0.6,0.6,1.5,1.2,2.6,1.7c1.1,0.5,2.3,1.1,3.7,1.5c1.4,0.5,2.9,1,4.4,1.5
		c2,0.6,4,1.4,6.1,2.3c2.1,0.9,3.9,2,5.5,3.3c1.6,1.3,3,2.8,4.1,4.7c1.1,1.9,1.6,4.1,1.6,6.7v0.2c0,3.2-0.6,6-1.7,8.3
		c-1.1,2.3-2.7,4.2-4.6,5.7c-2,1.5-4.3,2.6-7,3.4C518.4,78.6,515.5,79,512.5,79z"/>
	<path id="XMLID_620_" class="st1" d="M539.5,60.8h17.2v17.1h-17.2V60.8z"/>
	<rect id="XMLID_559_" x="204.5" y="0" class="st2" width="60.1" height="14.4"/>
</g>
</svg>
