<?xml version="1.0" encoding="utf-8"?>
<!-- Generator: Adobe Illustrator 19.0.0, SVG Export Plug-In . SVG Version: 6.00 Build 0)  -->
<svg version="1.1" id="Layer_1" xmlns="http://www.w3.org/2000/svg" xmlns:xlink="http://www.w3.org/1999/xlink" x="0px" y="0px"
	 viewBox="0 0 557 99.5" style="enable-background:new 0 0 557 99.5;" xml:space="preserve">
<style type="text/css">
	.st0{fill:#5C5C5C;}
	.st1{fill:#6BC5E6;}
	.st2{fill:#36D7B7;}
</style>
<g id="XMLID_27_">
	<path id="XMLID_114_" class="st0" d="M0,21.7h17v8.6c2.1-2.8,4.6-5.2,7.5-7c2.9-1.8,6.7-2.7,11.1-2.7c3.5,0,6.9,0.7,10.2,2
		c3.3,1.3,6.2,3.3,8.7,6c2.5,2.6,4.6,5.9,6.1,9.7c1.5,3.8,2.3,8.3,2.3,13.2v0.2c0,5-0.8,9.4-2.3,13.2c-1.5,3.8-3.5,7.1-6,9.7
		c-2.5,2.6-5.4,4.6-8.7,6c-3.3,1.3-6.7,2-10.3,2c-4.5,0-8.3-0.9-11.2-2.7c-2.9-1.8-5.4-3.9-7.4-6.3v25.7H0V21.7z M31.3,68.3
		c2,0,3.9-0.4,5.6-1.2c1.8-0.8,3.3-1.9,4.6-3.4c1.3-1.5,2.4-3.2,3.2-5.2c0.8-2,1.2-4.3,1.2-6.8v-0.2c0-2.5-0.4-4.7-1.2-6.8
		c-0.8-2-1.8-3.8-3.2-5.3c-1.3-1.5-2.9-2.6-4.6-3.4c-1.8-0.8-3.6-1.2-5.6-1.2c-2,0-3.9,0.4-5.6,1.2c-1.8,0.8-3.3,1.9-4.6,3.4
		c-1.3,1.5-2.3,3.2-3.1,5.3c-0.8,2.1-1.2,4.3-1.2,6.8v0.2c0,2.5,0.4,4.7,1.2,6.8c0.8,2.1,1.8,3.8,3.1,5.3c1.3,1.5,2.8,2.6,4.6,3.4
		C27.4,67.9,29.3,68.3,31.3,68.3z"/>
	<path id="XMLID_112_" class="st0" d="M69.3,0h17v30.3c1-1.3,2-2.5,3.2-3.7c1.2-1.2,2.4-2.2,3.9-3.1c1.4-0.9,3-1.6,4.7-2.1
		c1.7-0.5,3.7-0.8,5.8-0.8c6.5,0,11.5,2,15,5.9c3.5,4,5.3,9.4,5.3,16.3v38.8h-17V48.3c0-4-0.9-7-2.7-9.1c-1.8-2-4.3-3.1-7.6-3.1
		c-3.3,0-5.9,1-7.8,3.1c-1.9,2-2.9,5.1-2.9,9.1v33.4h-17V0z"/>
	<path id="XMLID_109_" class="st0" d="M133.2,0h17.9v15.1h-17.9V0z M133.6,21.7h17v59.9h-17V21.7z"/>
	<path id="XMLID_107_" class="st0" d="M161.2,0h17v81.6h-17V0z"/>
	<path id="XMLID_104_" class="st0" d="M188.1,21.7h17v8.6c2.1-2.8,4.6-5.2,7.5-7c2.9-1.8,6.7-2.7,11.1-2.7c3.5,0,6.9,0.7,10.2,2
		c3.3,1.3,6.2,3.3,8.7,6c2.5,2.6,4.6,5.9,6.1,9.7c1.5,3.8,2.3,8.3,2.3,13.2v0.2c0,5-0.8,9.4-2.3,13.2c-1.5,3.8-3.5,7.1-6,9.7
		c-2.5,2.6-5.4,4.6-8.7,6c-3.3,1.3-6.7,2-10.3,2c-4.5,0-8.3-0.9-11.2-2.7c-2.9-1.8-5.4-3.9-7.4-6.3v25.7h-17V21.7z M219.4,68.3
		c2,0,3.9-0.4,5.6-1.2c1.8-0.8,3.3-1.9,4.6-3.4c1.3-1.5,2.4-3.2,3.2-5.2c0.8-2,1.2-4.3,1.2-6.8v-0.2c0-2.5-0.4-4.7-1.2-6.8
		c-0.8-2-1.8-3.8-3.2-5.3c-1.3-1.5-2.9-2.6-4.6-3.4c-1.8-0.8-3.6-1.2-5.6-1.2c-2,0-3.9,0.4-5.6,1.2c-1.8,0.8-3.3,1.9-4.6,3.4
		c-1.3,1.5-2.3,3.2-3.1,5.3c-0.8,2.1-1.2,4.3-1.2,6.8v0.2c0,2.5,0.4,4.7,1.2,6.8c0.8,2.1,1.8,3.8,3.1,5.3c1.3,1.5,2.8,2.6,4.6,3.4
		C215.5,67.9,217.4,68.3,219.4,68.3z"/>
	<path id="XMLID_101_" class="st0" d="M274.4,82.7c-2.8,0-5.5-0.4-8-1.2c-2.5-0.8-4.7-2-6.5-3.5c-1.9-1.6-3.3-3.5-4.4-5.8
		c-1.1-2.3-1.6-4.9-1.6-7.9v-0.2c0-3.3,0.6-6.1,1.8-8.5c1.2-2.4,2.9-4.4,5-5.9c2.1-1.6,4.7-2.7,7.6-3.5c2.9-0.8,6.2-1.2,9.8-1.2
		c3.1,0,5.7,0.2,8,0.7c2.3,0.4,4.5,1,6.7,1.8v-1c0-3.6-1.1-6.3-3.2-8.2c-2.2-1.9-5.4-2.8-9.6-2.8c-3.3,0-6.2,0.3-8.7,0.8
		c-2.5,0.6-5.1,1.4-7.9,2.4l-4.2-13c3.3-1.4,6.7-2.6,10.3-3.5c3.6-0.9,7.9-1.3,13-1.3c4.7,0,8.7,0.6,12,1.7c3.3,1.2,6.1,2.8,8.2,5
		c2.2,2.2,3.9,5,4.9,8.2c1,3.2,1.6,6.9,1.6,10.9v34.8h-16.4v-6.5c-2.1,2.3-4.6,4.2-7.5,5.5C282.1,82.1,278.6,82.7,274.4,82.7z
		 M279.5,71c4,0,7.2-1,9.7-2.9c2.4-1.9,3.6-4.5,3.6-7.6v-3c-1.5-0.7-3.1-1.2-5-1.6c-1.8-0.4-3.8-0.6-5.9-0.6c-3.7,0-6.5,0.7-8.6,2.1
		c-2.1,1.4-3.1,3.5-3.1,6.2v0.2c0,2.3,0.9,4.1,2.6,5.4C274.5,70.4,276.8,71,279.5,71z"/>
	<path id="XMLID_98_" class="st0" d="M317.4,21.7h17v8.6c2.1-2.8,4.6-5.2,7.5-7c2.9-1.8,6.7-2.7,11.1-2.7c3.5,0,6.9,0.7,10.2,2
		c3.3,1.3,6.2,3.3,8.7,6c2.5,2.6,4.6,5.9,6.1,9.7c1.5,3.8,2.3,8.3,2.3,13.2v0.2c0,5-0.8,9.4-2.3,13.2c-1.5,3.8-3.5,7.1-6,9.7
		c-2.5,2.6-5.4,4.6-8.7,6c-3.3,1.3-6.7,2-10.3,2c-4.5,0-8.3-0.9-11.2-2.7c-2.9-1.8-5.4-3.9-7.4-6.3v25.7h-17V21.7z M348.7,68.3
		c2,0,3.9-0.4,5.6-1.2c1.8-0.8,3.3-1.9,4.6-3.4c1.3-1.5,2.4-3.2,3.2-5.2c0.8-2,1.2-4.3,1.2-6.8v-0.2c0-2.5-0.4-4.7-1.2-6.8
		c-0.8-2-1.8-3.8-3.2-5.3c-1.3-1.5-2.9-2.6-4.6-3.4c-1.8-0.8-3.6-1.2-5.6-1.2c-2,0-3.9,0.4-5.6,1.2c-1.8,0.8-3.3,1.9-4.6,3.4
		c-1.3,1.5-2.3,3.2-3.1,5.3c-0.8,2.1-1.2,4.3-1.2,6.8v0.2c0,2.5,0.4,4.7,1.2,6.8c0.8,2.1,1.8,3.8,3.1,5.3c1.3,1.5,2.8,2.6,4.6,3.4
		C344.8,67.9,346.7,68.3,348.7,68.3z"/>
	<path id="XMLID_95_" class="st0" d="M415.2,83c-4.5,0-8.6-0.7-12.5-2.2c-3.8-1.5-7.2-3.6-10-6.4c-2.8-2.8-5-6-6.5-9.8
		c-1.6-3.8-2.3-8-2.3-12.6v-0.2c0-4.2,0.7-8.3,2.2-12.1c1.5-3.8,3.5-7.1,6.1-10c2.6-2.8,5.7-5.1,9.3-6.7c3.6-1.6,7.6-2.5,12-2.5
		c5,0,9.3,0.9,13,2.7c3.7,1.8,6.7,4.2,9.1,7.2c2.4,3,4.2,6.5,5.4,10.4c1.2,3.9,1.7,8,1.7,12.2c0,0.7,0,1.4-0.1,2.1
		c0,0.7-0.1,1.5-0.2,2.3h-41.7c0.8,3.9,2.5,6.8,5.1,8.8c2.6,2,5.8,3,9.6,3c2.8,0,5.4-0.5,7.6-1.5c2.2-1,4.5-2.5,6.9-4.7l9.7,8.6
		c-2.8,3.5-6.3,6.2-10.3,8.2C425.3,82,420.6,83,415.2,83z M426.1,47c-0.5-3.8-1.9-6.9-4-9.2c-2.2-2.3-5-3.5-8.6-3.5
		c-3.6,0-6.5,1.2-8.7,3.5c-2.2,2.3-3.6,5.4-4.3,9.3H426.1z"/>
	<path id="XMLID_93_" class="st0" d="M449.1,21.7h17v12.1c1.7-4.1,4.1-7.4,7-9.8c3-2.5,7-3.6,12.1-3.4v17.8h-0.9
		c-5.7,0-10.1,1.7-13.4,5.1c-3.2,3.4-4.9,8.8-4.9,16v22.1h-17V21.7z"/>
	<path id="XMLID_91_" class="st0" d="M510.8,82.7c-4.2,0-8.6-0.7-13-2.2c-4.4-1.5-8.7-3.7-12.7-6.9l7.3-11.2
		c3.3,2.4,6.5,4.2,9.8,5.4c3.2,1.2,6.3,1.8,9.1,1.8c2.5,0,4.3-0.4,5.4-1.2c1.2-0.8,1.7-1.9,1.7-3.2V65c0-0.9-0.3-1.7-1-2.3
		c-0.7-0.7-1.6-1.2-2.7-1.7c-1.2-0.5-2.5-1-4-1.4c-1.5-0.4-3.1-0.9-4.7-1.5c-2.1-0.6-4.2-1.3-6.3-2.2c-2.1-0.9-4-2-5.8-3.4
		c-1.7-1.4-3.1-3.1-4.2-5.1c-1.1-2-1.6-4.5-1.6-7.4v-0.2c0-3.1,0.6-5.8,1.7-8.1c1.2-2.3,2.7-4.3,4.7-6c2-1.6,4.3-2.9,6.9-3.7
		c2.6-0.8,5.5-1.2,8.6-1.2c3.8,0,7.7,0.6,11.6,1.8c3.9,1.2,7.5,2.9,10.8,5.1l-6.5,11.7c-3-1.7-5.9-3.1-8.7-4.1
		c-2.8-1-5.3-1.5-7.5-1.5c-2.1,0-3.7,0.4-4.7,1.2c-1,0.8-1.6,1.8-1.6,3v0.2c0,0.8,0.3,1.5,1,2.2c0.7,0.6,1.6,1.2,2.7,1.8
		c1.1,0.6,2.4,1.1,3.9,1.6c1.5,0.5,3,1,4.6,1.6c2.1,0.7,4.2,1.5,6.4,2.4c2.2,0.9,4.1,2.1,5.8,3.4c1.7,1.3,3.1,3,4.2,4.9
		c1.1,1.9,1.7,4.3,1.7,7v0.2c0,3.4-0.6,6.2-1.7,8.7c-1.2,2.4-2.8,4.4-4.9,6c-2.1,1.6-4.5,2.7-7.3,3.5C517,82.4,514,82.7,510.8,82.7z
		"/>
	<path id="XMLID_89_" class="st0" d="M539,63.7h18v17.9h-18V63.7z"/>
	<rect id="XMLID_88_" y="0" class="st1" width="63" height="15.1"/>
	<rect id="XMLID_87_" x="188.1" y="0" class="st2" width="63" height="15.1"/>
</g>
</svg>
