<?xml version="1.0" encoding="utf-8"?>
<!-- Generator: Adobe Illustrator 19.0.0, SVG Export Plug-In . SVG Version: 6.00 Build 0)  -->
<svg version="1.1" id="Layer_1" xmlns="http://www.w3.org/2000/svg" xmlns:xlink="http://www.w3.org/1999/xlink" x="0px" y="0px"
	 viewBox="0 0 557 108.6" style="enable-background:new 0 0 557 108.6;" xml:space="preserve">
<style type="text/css">
	.st0{fill:#5C5C5C;}
	.st1{fill:#36D7B7;}
</style>
<path id="XMLID_2_" class="st0" d="M60.3,57c0,20.8-9.8,31.7-24.8,31.7c-4.4,0-8.3-1.2-11-3.5V96c0,6.6,3.6,8.4,9.6,8.4v2.3
	c-3.6-0.1-10.7-0.5-18-0.5c-5.2,0-10.8,0.4-13.5,0.5v-2.3c4.7,0,6.4-1.6,6.4-7.3V43.5c0-6.4-1.7-9.4-6.9-9.4v-2.3
	c2.3,0.2,4.5,0.3,6.7,0.3c6,0,11.2-0.4,15.7-1.5v10.1c3-6.8,9.1-10.4,16.7-10.4C52.1,30.2,60.3,39.1,60.3,57z M44.2,59.1
	c0-18.2-3.7-24.2-9.3-24.2c-4.7,0-9.1,3.4-10.4,9.5v38.6c1.6,1.8,3.9,2.9,6.8,2.9C40.9,85.8,44.2,75.6,44.2,59.1z"/>
<path id="XMLID_5_" class="st0" d="M86,40.2c3.6-7.3,10-9.9,17.5-9.9c6.1,0,9.6,1.7,11.8,4.2c2.4,2.7,3.4,6.7,3.4,13.9v28.9
	c0,6,1.9,7.7,6.9,7.7v2.3c-2.7-0.1-8.9-0.4-14.1-0.4c-5.5,0-11.3,0.3-13.9,0.4v-2.3c4.2,0,5.8-1.7,5.8-7.7V43.9c0-5.3-1.3-9-6.6-9
	c-5.9,0-10.7,5.1-10.7,12.4v29.9c0,6,1.6,7.7,5.8,7.7v2.3c-2.5-0.1-8.1-0.4-13.3-0.4c-5.5,0-11.9,0.3-14.8,0.4v-2.3
	c5,0,6.9-1.7,6.9-7.7V16.1c0-6.4-1.7-9.4-6.9-9.4V4.5c2.3,0.2,4.5,0.3,6.6,0.3c6,0,11.2-0.4,15.7-1.5V40.2z"/>
<path id="XMLID_7_" class="st0" d="M149.2,77.3c0,6,1.8,7.7,6.9,7.7v2.3c-2.7-0.1-8.7-0.4-14.3-0.4c-5.6,0-12,0.3-14.8,0.4v-2.3
	c5,0,6.9-1.7,6.9-7.7V43.4c0-6.4-1.7-9.5-6.9-9.5v-2.3c2.3,0.2,4.5,0.4,6.7,0.4c6,0,11.2-0.5,15.7-1.5V77.3z M150.5,12.3
	c0,5.2-3.8,8.3-9.7,8.3c-6,0-9.8-3.1-9.8-8.3c0-5.1,3.8-8.3,9.8-8.3C146.7,4,150.5,7.2,150.5,12.3z"/>
<path id="XMLID_10_" class="st0" d="M179.9,77.3c0,6,1.9,7.7,6.9,7.7v2.3c-2.7-0.1-8.7-0.4-14.3-0.4c-5.6,0-12,0.3-14.9,0.4v-2.3
	c5,0,6.9-1.7,6.9-7.7V16.1c0-6.4-1.7-9.5-6.9-9.5V4.4c2.3,0.2,4.5,0.3,6.7,0.3c6,0,11.2-0.4,15.7-1.5V77.3z"/>
<path id="XMLID_12_" class="st0" d="M209.7,80.4c0,5.1-3.6,8.3-9.2,8.3s-9.1-3.1-9.1-8.3c0-5.2,3.5-8.3,9.1-8.3
	S209.7,75.3,209.7,80.4z"/>
<path id="XMLID_14_" class="st1" d="M272.6,57c0,20.8-9.8,31.7-24.8,31.7c-4.4,0-8.3-1.2-11-3.5V96c0,6.6,3.6,8.4,9.6,8.4v2.3
	c-3.6-0.1-10.7-0.5-18-0.5c-5.2,0-10.8,0.4-13.5,0.5v-2.3c4.7,0,6.4-1.6,6.4-7.3V43.5c0-6.4-1.7-9.4-6.9-9.4v-2.3
	c2.3,0.2,4.5,0.3,6.7,0.3c6,0,11.2-0.4,15.7-1.5v10.1c3-6.8,9.1-10.4,16.7-10.4C264.3,30.2,272.6,39.1,272.6,57z M256.4,59.1
	c0-18.2-3.7-24.2-9.3-24.2c-4.7,0-9.1,3.4-10.4,9.5v38.6c1.6,1.8,3.9,2.9,6.8,2.9C253.1,85.8,256.4,75.6,256.4,59.1z"/>
<path id="XMLID_17_" class="st1" d="M317.9,35c3.1,3.2,3.8,7.5,3.8,15v29.2c0,3.5,0.6,4.8,2.3,4.8c1.5,0,2.7-0.9,3.9-1.8l1.1,1.8
	c-3.2,2.6-6.8,3.9-12.3,3.9c-7.9,0-10.3-4.1-10.3-8.7c-3.7,6-9.8,8.7-15.8,8.7c-8,0-13.6-4.4-13.6-12.2c0-7.7,5.1-12.1,15.1-15.8
	c7.9-3,14.1-5,14.1-9.6V42c0-5.6-2.4-9.6-8.7-9.6c-2.6,0-5.7,0.7-7.6,2.6c3.8,1.3,6.3,4.1,6.3,8.4c0,4.5-3.5,7.7-8.7,7.7
	c-4.7,0-7.6-3.6-7.6-8.3c0-3.9,2.5-6.9,6-9c3.8-2.1,9.1-3.7,16.3-3.7C309.1,30.2,314.4,31.5,317.9,35z M306.3,54.7
	c-1,1.6-3,3-6.7,5.3c-3.8,2.8-7.3,6.3-7.3,12.7c0,5.9,2.9,8.3,6.7,8.3c2.6,0,5-1.2,7.2-4.3V54.7z"/>
<path id="XMLID_20_" class="st1" d="M387.1,57c0,20.8-9.8,31.7-24.8,31.7c-4.4,0-8.3-1.2-11-3.5V96c0,6.6,3.6,8.4,9.6,8.4v2.3
	c-3.6-0.1-10.7-0.5-18-0.5c-5.2,0-10.8,0.4-13.5,0.5v-2.3c4.7,0,6.4-1.6,6.4-7.3V43.5c0-6.4-1.7-9.4-6.9-9.4v-2.3
	c2.3,0.2,4.5,0.3,6.7,0.3c6,0,11.2-0.4,15.7-1.5v10.1c3-6.8,9.1-10.4,16.7-10.4C378.8,30.2,387.1,39.1,387.1,57z M370.9,59.1
	c0-18.2-3.7-24.2-9.3-24.2c-4.7,0-9.1,3.4-10.4,9.5v38.6c1.6,1.8,3.9,2.9,6.8,2.9C367.6,85.8,370.9,75.6,370.9,59.1z"/>
<path id="XMLID_23_" class="st1" d="M436.7,71.3l1.9,0.7c-2.6,8.1-9.6,16.7-21.5,16.7c-14.5,0-24.7-9.1-24.7-28.7
	c0-19.9,11-29.8,26.2-29.8c12.5,0,20.2,7,20.2,23.8h-30c-0.2,1.6-0.2,3.4-0.2,5.1c0,14.9,7.2,20.7,14,20.7
	C426.9,79.9,432.3,78.4,436.7,71.3z M408.5,52h16.8c0.2-10.5-2-19.5-7.3-19.5C413.2,32.5,409.4,38.1,408.5,52z"/>
<path id="XMLID_26_" class="st1" d="M488.5,40.1c0,5.3-3.3,9-8.3,9s-8-2.7-8-6.9c0-3.9,2-6.5,4.7-8.3c-0.4-0.2-0.9-0.3-1.4-0.3
	c-0.5,0-1,0.1-1.5,0.3c-5.7,0.9-9.7,8.1-9.7,13.8v28.4c0,6.9,3.3,8.8,10.1,8.8v2.3c-3.3-0.1-10.3-0.4-17-0.4
	c-5.9,0-12.4,0.3-15.3,0.4v-2.3c5,0,6.9-1.7,6.9-7.7V43.4c0-6.4-1.7-9.5-6.9-9.5v-2.3c2.3,0.2,4.5,0.4,6.7,0.4
	c6,0,11.2-0.5,15.7-1.5v10c2.6-5.8,7.7-10.3,14.5-10.3C485.6,30.2,488.5,35.3,488.5,40.1z"/>
<path id="XMLID_28_" class="st1" d="M523.2,33.5c0.7,0.5,1.4,0.7,1.9,0.7c1.3,0,2.1-1.3,2.5-3.9h2.3c-0.4,4.1-0.5,9.3-0.5,18.9h-2.2
	c-1.1-7.9-4.6-16.6-13.8-16.6c-4.1,0-7.3,2.5-7.3,6.9c0,6.4,6.6,10,13.2,14.9c7.2,5.3,12.8,9.9,12.8,18.4c0,9.8-9.3,15.9-20.3,15.9
	c-4.3,0-7.6-0.9-10.1-2.3c-1.9-1-3.5-1.8-5-2.3c-0.2-0.1-0.3-0.1-0.5-0.1c-1.2,0-2.1,1.5-2.6,3.8h-2.3c0.3-4.6,0.4-10.6,0.4-21.4
	h2.3c1.3,11.6,5.4,19.7,14.5,19.7c3.7,0,7.5-2.1,7.5-7.6c0-6.3-4.7-9.8-10.8-14.6c-7-5.5-13.5-10.4-13.5-19
	c0-9.5,8.7-14.8,18.4-14.8C516.4,30.2,521.1,32.2,523.2,33.5z"/>
<path id="XMLID_30_" class="st1" d="M557,80.4c0,5.1-3.6,8.3-9.2,8.3c-5.6,0-9.1-3.1-9.1-8.3c0-5.2,3.5-8.3,9.1-8.3
	C553.5,72.1,557,75.3,557,80.4z"/>
</svg>
