<?xml version="1.0" encoding="utf-8"?>
<!-- Generator: Adobe Illustrator 19.0.0, SVG Export Plug-In . SVG Version: 6.00 Build 0)  -->
<svg version="1.1" id="Layer_1" xmlns="http://www.w3.org/2000/svg" xmlns:xlink="http://www.w3.org/1999/xlink" x="0px" y="0px"
	 viewBox="0 0 557 108.6" style="enable-background:new 0 0 557 108.6;" xml:space="preserve">
<style type="text/css">
	.st0{fill:#5C5C5C;}
</style>
<g id="XMLID_1_">
	<path id="XMLID_2_" class="st0" d="M57.6,56.6c0,16.3-7.5,33.2-25.8,33.2c-5.9,0-10.7-2.6-13.2-6.1v14.4c0,6.4,4.1,8.1,10.8,8.1
		v2.4c-3.3-0.1-9.7-0.5-16.2-0.5c-4.7,0-9.8,0.4-12.1,0.5v-2.4c5.4,0,7.4-1.6,7.4-7V42.6c0-6.8-2-9.9-8.6-9.9v-2.4
		c2.4,0.2,4.7,0.3,7,0.3c4.4,0,8.5-0.4,11.7-1.5v11.9c3.4-7.8,10.1-12.2,18-12.2C48.5,28.7,57.6,38.5,57.6,56.6z M46.7,58.2
		c0-17.9-4.5-26.1-13.1-26.1c-6.5,0-12.5,4.7-14.9,14.2V80c2.1,4.2,6,7.3,11.9,7.3C43.1,87.3,46.7,74.2,46.7,58.2z"/>
	<path id="XMLID_5_" class="st0" d="M81,42.2c4-10.1,11.5-13.5,19.1-13.5c5.8,0,9.3,1.5,11.9,4.2c2.8,3.1,4,7.1,4,14.8v30.1
		c0,6.3,2.4,8.1,8.6,8.1v2.4c-2.6-0.1-8.6-0.4-13.5-0.4s-10.3,0.3-12.6,0.4v-2.4c5.4,0,7.5-1.8,7.5-8.1V45.3c0-7-1-13-9.1-13
		c-9.2,0-15.8,8.5-15.8,20.4v25.1c0,6.3,2,8.1,7.4,8.1v2.4c-2.4-0.1-7.6-0.4-12.6-0.4c-4.9,0-10.9,0.3-13.5,0.4v-2.4
		c6.2,0,8.6-1.8,8.6-8.1V13.6c0-6.8-2-9.9-8.6-9.9V1.4c2.4,0.2,4.7,0.3,7,0.3c4.4,0,8.5-0.4,11.7-1.6V42.2z"/>
	<path id="XMLID_7_" class="st0" d="M145.4,77.8c0,6.3,2.4,8.1,8.6,8.1v2.4c-2.6-0.1-8.5-0.4-13.6-0.4s-11,0.3-13.6,0.4v-2.4
		c6.2,0,8.6-1.8,8.6-8.1V42.6c0-6.8-2-9.9-8.6-9.9v-2.4c2.4,0.2,4.7,0.3,7,0.3c4.4,0,8.5-0.4,11.7-1.5V77.8z M146.8,9.3
		c0,4-3.3,7.2-7.2,7.2c-4,0-7.2-3.2-7.2-7.2c0-3.9,3.2-7.2,7.2-7.2C143.5,2.1,146.8,5.4,146.8,9.3z"/>
	<path id="XMLID_10_" class="st0" d="M174.8,77.8c0,6.3,2.4,8.1,8.6,8.1v2.4c-2.6-0.1-8.5-0.4-13.6-0.4s-11,0.3-13.6,0.4v-2.4
		c6.2,0,8.6-1.8,8.6-8.1V13.5c0-6.8-2-9.9-8.6-9.9V1.3c2.4,0.2,4.7,0.3,7,0.3c4.4,0,8.5-0.4,11.7-1.6V77.8z"/>
	<path id="XMLID_12_" class="st0" d="M204.4,82.6c0,3.9-3.2,7.2-7.2,7.2s-7.2-3.3-7.2-7.2c0-4,3.2-7.2,7.2-7.2
		S204.4,78.7,204.4,82.6z"/>
	<path id="XMLID_14_" class="st0" d="M268.7,56.6c0,16.3-7.5,33.2-25.8,33.2c-5.9,0-10.7-2.6-13.2-6.1v14.4c0,6.4,4.1,8.1,10.8,8.1
		v2.4c-3.3-0.1-9.7-0.5-16.2-0.5c-4.7,0-9.8,0.4-12.1,0.5v-2.4c5.4,0,7.4-1.6,7.4-7V42.6c0-6.8-2-9.9-8.6-9.9v-2.4
		c2.4,0.2,4.7,0.3,7,0.3c4.4,0,8.5-0.4,11.7-1.5v11.9c3.4-7.8,10.1-12.2,18-12.2C259.5,28.7,268.7,38.5,268.7,56.6z M257.7,58.2
		c0-17.9-4.5-26.1-13.1-26.1c-6.5,0-12.5,4.7-14.9,14.2V80c2.1,4.2,6,7.3,11.9,7.3C254.1,87.3,257.7,74.2,257.7,58.2z"/>
	<path id="XMLID_17_" class="st0" d="M312.8,33c3.6,3.6,4.5,7.8,4.5,15.8V80c0,3.6,0.9,5.3,3.5,5.3c2,0,3.5-1,5.1-2.4l1.3,1.9
		c-3.1,2.4-5.5,4.1-10.3,4.1c-7.9,0-9.7-4.7-9.7-10c-4.8,8-11.9,10-17.3,10c-7.5,0-14.3-3.8-14.3-12.6c0-8.9,6.9-12.9,18.1-17.6
		c7.5-3.1,13.5-5.1,13.5-9.6v-7c0-9.5-4.6-11.3-10.4-11.3c-3.8,0-8.6,0.8-11.2,4c2.8,0.7,5.3,3.2,5.3,6.9c0,3.8-2.6,6.1-6.6,6.1
		c-3.8,0-6.1-2.9-6.1-7c0-3.3,2.1-5.9,5.3-8c3.2-2.1,8.6-4.2,15.8-4.2C305.5,28.7,310.2,30.4,312.8,33z M307.1,53.9
		c-1.2,1.8-3.7,3-10.8,6.4c-4.9,2.4-10.9,5.6-10.9,14.3c0,6.8,3.8,9.9,9,9.9c4.5,0,8.9-2.4,12.7-8.5V53.9z"/>
	<path id="XMLID_20_" class="st0" d="M384.5,56.6c0,16.3-7.5,33.2-25.8,33.2c-5.9,0-10.7-2.6-13.2-6.1v14.4c0,6.4,4.1,8.1,10.8,8.1
		v2.4c-3.3-0.1-9.7-0.5-16.2-0.5c-4.7,0-9.8,0.4-12.1,0.5v-2.4c5.4,0,7.4-1.6,7.4-7V42.6c0-6.8-2-9.9-8.6-9.9v-2.4
		c2.4,0.2,4.7,0.3,7,0.3c4.4,0,8.5-0.4,11.7-1.5v11.9c3.4-7.8,10.1-12.2,18-12.2C375.4,28.7,384.5,38.5,384.5,56.6z M373.5,58.2
		c0-17.9-4.5-26.1-13.1-26.1c-6.5,0-12.5,4.7-14.9,14.2V80c2.1,4.2,6,7.3,11.9,7.3C369.9,87.3,373.5,74.2,373.5,58.2z"/>
	<path id="XMLID_23_" class="st0" d="M439,74.7c-2.5,7.5-9.9,15.1-21,15.1c-16.3,0-25.9-11.9-25.9-29.2c0-19.8,10-31.9,25.4-31.9
		c13.2,0,21,7.7,21,24.7h-35.2c-0.3,2.1-0.4,4.7-0.4,7.2c0,15.4,8.6,24.5,17.2,24.5c6.8,0,12.6-2.9,16.5-11.3L439,74.7z M403.3,51.3
		h24.5c0.4-11-3.1-20.4-10.7-20.4C410.4,30.9,404.5,37.1,403.3,51.3z"/>
	<path id="XMLID_26_" class="st0" d="M489.6,37.6c0,3.8-2.5,7.1-6.4,7.1c-3.1,0-6-2.1-6-5.8c0-2.8,1.8-4.8,3.8-6.1
		c-0.5-0.8-1.4-1.1-2.4-1.1c-9.5,0-15.7,12.8-15.7,21.2v23.8c0,7.3,4.5,9.2,11.9,9.2v2.4c-3.5-0.1-10.3-0.4-17.3-0.4
		c-5.2,0-10.7,0.3-13.3,0.4v-2.4c6.2,0,8.6-1.8,8.6-8.1V42.6c0-6.8-2-9.9-8.6-9.9v-2.4c2.4,0.2,4.7,0.3,7,0.3
		c4.4,0,8.5-0.4,11.7-1.5v14.1c2.4-6.5,8.5-14.4,16.3-14.4C485.4,28.7,489.6,32.7,489.6,37.6z"/>
	<path id="XMLID_28_" class="st0" d="M523.9,32.9c0.8,0.6,1.4,0.9,2,0.9c1.3,0,2.1-1.6,2.5-4.9h2.6c-0.3,4.1-0.4,9.5-0.4,19.1h-2.6
		c-1.4-8.4-5.2-17.1-15.3-17.1c-5.3,0-9.2,3-9.2,8.6c0,6.8,6.8,9.9,14.5,14.9c8.5,5.5,15.4,10.4,15.4,19.7c0,10.3-9,15.8-19.2,15.8
		c-3.2,0-6.2-0.5-8.9-1.6c-1.6-0.8-3.1-1.8-4.6-3c-0.3-0.3-0.7-0.4-1-0.4c-1,0-1.9,1.4-2.3,4.2h-2.6c0.3-4.8,0.4-11.1,0.4-22.5h2.6
		c1.5,12.6,4.4,21,15.7,21c4.5,0,10-2.7,10-10.7c0-6.5-5.4-10.1-12.7-14.7C502.3,57,495,52.6,495,43.2c0-10,7.7-14.5,16.6-14.5
		C517.5,28.7,521.8,31.2,523.9,32.9z"/>
	<path id="XMLID_30_" class="st0" d="M557,82.6c0,3.9-3.2,7.2-7.2,7.2c-4,0-7.2-3.3-7.2-7.2c0-4,3.2-7.2,7.2-7.2
		C553.8,75.4,557,78.7,557,82.6z"/>
</g>
</svg>
